<svg fill="none" height="879" viewBox="0 0 1411 879" width="1411" xmlns="http://www.w3.org/2000/svg"><g fill="#d1d5da" opacity=".2"><path d="m20.0001 68h-18.00004c-3.31371 0-6 2.6863-6 6v18c0 3.3137 2.68629 6 6 6h18.00004c3.3137 0 6-2.6863 6-6v-18c0-3.3137-2.6863-6-6-6z"/><path d="m54.0001 68h-18c-3.3137 0-6 2.6863-6 6v18c0 3.3137 2.6863 6 6 6h18c3.3137 0 6-2.6863 6-6v-18c0-3.3137-2.6863-6-6-6z"/><path d="m88.0001 68h-18c-3.3137 0-6 2.6863-6 6v18c0 3.3137 2.6863 6 6 6h18c3.3137 0 6-2.6863 6-6v-18c0-3.3137-2.6863-6-6-6z"/><path d="m122 68h-18c-3.314 0-5.9999 2.6863-5.9999 6v18c0 3.3137 2.6859 6 5.9999 6h18c3.314 0 6-2.6863 6-6v-18c0-3.3137-2.686-6-6-6z" opacity=".5"/><path d="m156 68h-18c-3.314 0-6 2.6863-6 6v18c0 3.3137 2.686 6 6 6h18c3.314 0 6-2.6863 6-6v-18c0-3.3137-2.686-6-6-6z"/><path d="m190 68h-18c-3.314 0-6 2.6863-6 6v18c0 3.3137 2.686 6 6 6h18c3.314 0 6-2.6863 6-6v-18c0-3.3137-2.686-6-6-6z"/><path d="m224 68h-18c-3.314 0-6 2.6863-6 6v18c0 3.3137 2.686 6 6 6h18c3.314 0 6-2.6863 6-6v-18c0-3.3137-2.686-6-6-6z"/><path d="m258 68h-18c-3.314 0-6 2.6863-6 6v18c0 3.3137 2.686 6 6 6h18c3.314 0 6-2.6863 6-6v-18c0-3.3137-2.686-6-6-6z"/><path d="m292 68h-18c-3.314 0-6 2.6863-6 6v18c0 3.3137 2.686 6 6 6h18c3.314 0 6-2.6863 6-6v-18c0-3.3137-2.686-6-6-6z"/><path d="m326 68h-18c-3.314 0-6 2.6863-6 6v18c0 3.3137 2.686 6 6 6h18c3.314 0 6-2.6863 6-6v-18c0-3.3137-2.686-6-6-6z"/><path d="m360 68h-18c-3.314 0-6 2.6863-6 6v18c0 3.3137 2.686 6 6 6h18c3.314 0 6-2.6863 6-6v-18c0-3.3137-2.686-6-6-6z"/><path d="m394 68h-18c-3.314 0-6 2.6863-6 6v18c0 3.3137 2.686 6 6 6h18c3.314 0 6-2.6863 6-6v-18c0-3.3137-2.686-6-6-6z"/><path d="m428 68h-18c-3.314 0-6 2.6863-6 6v18c0 3.3137 2.686 6 6 6h18c3.314 0 6-2.6863 6-6v-18c0-3.3137-2.686-6-6-6z"/><path d="m462 68h-18c-3.314 0-6 2.6863-6 6v18c0 3.3137 2.686 6 6 6h18c3.314 0 6-2.6863 6-6v-18c0-3.3137-2.686-6-6-6z"/><path d="m496 68h-18c-3.314 0-6 2.6863-6 6v18c0 3.3137 2.686 6 6 6h18c3.314 0 6-2.6863 6-6v-18c0-3.3137-2.686-6-6-6z" opacity=".3"/><path d="m564 68h-18c-3.314 0-6 2.6863-6 6v18c0 3.3137 2.686 6 6 6h18c3.314 0 6-2.6863 6-6v-18c0-3.3137-2.686-6-6-6z"/><path d="m632 68h-18c-3.314 0-6 2.6863-6 6v18c0 3.3137 2.686 6 6 6h18c3.314 0 6-2.6863 6-6v-18c0-3.3137-2.686-6-6-6z"/><path d="m700 68h-18c-3.314 0-6 2.6863-6 6v18c0 3.3137 2.686 6 6 6h18c3.314 0 6-2.6863 6-6v-18c0-3.3137-2.686-6-6-6z"/><path d="m54.0001 136h-18c-3.3137 0-6 2.686-6 6v18c0 3.314 2.6863 6 6 6h18c3.3137 0 6-2.686 6-6v-18c0-3.314-2.6863-6-6-6z" opacity=".27"/><path d="m88.0001 136h-18c-3.3137 0-6 2.686-6 6v18c0 3.314 2.6863 6 6 6h18c3.3137 0 6-2.686 6-6v-18c0-3.314-2.6863-6-6-6z"/><path d="m122 136h-18c-3.314 0-5.9999 2.686-5.9999 6v18c0 3.314 2.6859 6 5.9999 6h18c3.314 0 6-2.686 6-6v-18c0-3.314-2.686-6-6-6z" opacity=".9"/><path d="m156 136h-18c-3.314 0-6 2.686-6 6v18c0 3.314 2.686 6 6 6h18c3.314 0 6-2.686 6-6v-18c0-3.314-2.686-6-6-6z" opacity=".6"/><path d="m190 136h-18c-3.314 0-6 2.686-6 6v18c0 3.314 2.686 6 6 6h18c3.314 0 6-2.686 6-6v-18c0-3.314-2.686-6-6-6z"/><path d="m258 136h-18c-3.314 0-6 2.686-6 6v18c0 3.314 2.686 6 6 6h18c3.314 0 6-2.686 6-6v-18c0-3.314-2.686-6-6-6z"/><path d="m292 136h-18c-3.314 0-6 2.686-6 6v18c0 3.314 2.686 6 6 6h18c3.314 0 6-2.686 6-6v-18c0-3.314-2.686-6-6-6z"/><path d="m326 136h-18c-3.314 0-6 2.686-6 6v18c0 3.314 2.686 6 6 6h18c3.314 0 6-2.686 6-6v-18c0-3.314-2.686-6-6-6z" opacity=".5"/><path d="m360 136h-18c-3.314 0-6 2.686-6 6v18c0 3.314 2.686 6 6 6h18c3.314 0 6-2.686 6-6v-18c0-3.314-2.686-6-6-6z"/><path d="m394 136h-18c-3.314 0-6 2.686-6 6v18c0 3.314 2.686 6 6 6h18c3.314 0 6-2.686 6-6v-18c0-3.314-2.686-6-6-6z"/><path d="m428 136h-18c-3.314 0-6 2.686-6 6v18c0 3.314 2.686 6 6 6h18c3.314 0 6-2.686 6-6v-18c0-3.314-2.686-6-6-6z"/><path d="m462 136h-18c-3.314 0-6 2.686-6 6v18c0 3.314 2.686 6 6 6h18c3.314 0 6-2.686 6-6v-18c0-3.314-2.686-6-6-6z"/><path d="m496 136h-18c-3.314 0-6 2.686-6 6v18c0 3.314 2.686 6 6 6h18c3.314 0 6-2.686 6-6v-18c0-3.314-2.686-6-6-6z"/><path d="m564 136h-18c-3.314 0-6 2.686-6 6v18c0 3.314 2.686 6 6 6h18c3.314 0 6-2.686 6-6v-18c0-3.314-2.686-6-6-6z"/><path d="m632 136h-18c-3.314 0-6 2.686-6 6v18c0 3.314 2.686 6 6 6h18c3.314 0 6-2.686 6-6v-18c0-3.314-2.686-6-6-6z"/><path d="m666 136h-18c-3.314 0-6 2.686-6 6v18c0 3.314 2.686 6 6 6h18c3.314 0 6-2.686 6-6v-18c0-3.314-2.686-6-6-6z"/><path d="m700 136h-18c-3.314 0-6 2.686-6 6v18c0 3.314 2.686 6 6 6h18c3.314 0 6-2.686 6-6v-18c0-3.314-2.686-6-6-6z"/><path d="m20.0001 374h-18.00004c-3.31371 0-6 2.686-6 6v18c0 3.314 2.68629 6 6 6h18.00004c3.3137 0 6-2.686 6-6v-18c0-3.314-2.6863-6-6-6z"/><path d="m54.0001 374h-18c-3.3137 0-6 2.686-6 6v18c0 3.314 2.6863 6 6 6h18c3.3137 0 6-2.686 6-6v-18c0-3.314-2.6863-6-6-6z" opacity=".5"/><path d="m88.0001 374h-18c-3.3137 0-6 2.686-6 6v18c0 3.314 2.6863 6 6 6h18c3.3137 0 6-2.686 6-6v-18c0-3.314-2.6863-6-6-6z"/><path d="m122 374h-18c-3.314 0-5.9999 2.686-5.9999 6v18c0 3.314 2.6859 6 5.9999 6h18c3.314 0 6-2.686 6-6v-18c0-3.314-2.686-6-6-6z" opacity=".7"/><path d="m156 374h-18c-3.314 0-6 2.686-6 6v18c0 3.314 2.686 6 6 6h18c3.314 0 6-2.686 6-6v-18c0-3.314-2.686-6-6-6z"/><path d="m190 374h-18c-3.314 0-6 2.686-6 6v18c0 3.314 2.686 6 6 6h18c3.314 0 6-2.686 6-6v-18c0-3.314-2.686-6-6-6z" opacity=".4"/><path d="m224 374h-18c-3.314 0-6 2.686-6 6v18c0 3.314 2.686 6 6 6h18c3.314 0 6-2.686 6-6v-18c0-3.314-2.686-6-6-6z" opacity=".5"/><path d="m360 374h-18c-3.314 0-6 2.686-6 6v18c0 3.314 2.686 6 6 6h18c3.314 0 6-2.686 6-6v-18c0-3.314-2.686-6-6-6z"/><path d="m394 374h-18c-3.314 0-6 2.686-6 6v18c0 3.314 2.686 6 6 6h18c3.314 0 6-2.686 6-6v-18c0-3.314-2.686-6-6-6z" opacity=".5"/><path d="m428 374h-18c-3.314 0-6 2.686-6 6v18c0 3.314 2.686 6 6 6h18c3.314 0 6-2.686 6-6v-18c0-3.314-2.686-6-6-6z"/><path d="m496 374h-18c-3.314 0-6 2.686-6 6v18c0 3.314 2.686 6 6 6h18c3.314 0 6-2.686 6-6v-18c0-3.314-2.686-6-6-6z"/><path d="m530 374h-18c-3.314 0-6 2.686-6 6v18c0 3.314 2.686 6 6 6h18c3.314 0 6-2.686 6-6v-18c0-3.314-2.686-6-6-6z" opacity=".2"/><path d="m564 374h-18c-3.314 0-6 2.686-6 6v18c0 3.314 2.686 6 6 6h18c3.314 0 6-2.686 6-6v-18c0-3.314-2.686-6-6-6z"/><path d="m632 374h-18c-3.314 0-6 2.686-6 6v18c0 3.314 2.686 6 6 6h18c3.314 0 6-2.686 6-6v-18c0-3.314-2.686-6-6-6z"/><path d="m700 374h-18c-3.314 0-6 2.686-6 6v18c0 3.314 2.686 6 6 6h18c3.314 0 6-2.686 6-6v-18c0-3.314-2.686-6-6-6z"/><path d="m700 408h-18c-3.314 0-6 2.686-6 6v18c0 3.314 2.686 6 6 6h18c3.314 0 6-2.686 6-6v-18c0-3.314-2.686-6-6-6z" opacity=".3"/><path d="m700 442h-18c-3.314 0-6 2.686-6 6v18c0 3.314 2.686 6 6 6h18c3.314 0 6-2.686 6-6v-18c0-3.314-2.686-6-6-6z"/><path d="m54.0001 408h-18c-3.3137 0-6 2.686-6 6v18c0 3.314 2.6863 6 6 6h18c3.3137 0 6-2.686 6-6v-18c0-3.314-2.6863-6-6-6z" opacity=".5"/><path d="m20.0001 408h-18.00004c-3.31371 0-6 2.686-6 6v18c0 3.314 2.68629 6 6 6h18.00004c3.3137 0 6-2.686 6-6v-18c0-3.314-2.6863-6-6-6z" opacity=".5"/><path d="m88.0001 408h-18c-3.3137 0-6 2.686-6 6v18c0 3.314 2.6863 6 6 6h18c3.3137 0 6-2.686 6-6v-18c0-3.314-2.6863-6-6-6z" opacity=".5"/><path d="m122 408h-18c-3.314 0-5.9999 2.686-5.9999 6v18c0 3.314 2.6859 6 5.9999 6h18c3.314 0 6-2.686 6-6v-18c0-3.314-2.686-6-6-6z" opacity=".5"/><path d="m156 408h-18c-3.314 0-6 2.686-6 6v18c0 3.314 2.686 6 6 6h18c3.314 0 6-2.686 6-6v-18c0-3.314-2.686-6-6-6z" opacity=".5"/><path d="m190 408h-18c-3.314 0-6 2.686-6 6v18c0 3.314 2.686 6 6 6h18c3.314 0 6-2.686 6-6v-18c0-3.314-2.686-6-6-6z"/><path d="m224 408h-18c-3.314 0-6 2.686-6 6v18c0 3.314 2.686 6 6 6h18c3.314 0 6-2.686 6-6v-18c0-3.314-2.686-6-6-6z" opacity=".5"/><path d="m258 408h-18c-3.314 0-6 2.686-6 6v18c0 3.314 2.686 6 6 6h18c3.314 0 6-2.686 6-6v-18c0-3.314-2.686-6-6-6z" opacity=".5"/><path d="m292 408h-18c-3.314 0-6 2.686-6 6v18c0 3.314 2.686 6 6 6h18c3.314 0 6-2.686 6-6v-18c0-3.314-2.686-6-6-6z" opacity=".5"/><path d="m394 408h-18c-3.314 0-6 2.686-6 6v18c0 3.314 2.686 6 6 6h18c3.314 0 6-2.686 6-6v-18c0-3.314-2.686-6-6-6z"/><path d="m462 408h-18c-3.314 0-6 2.686-6 6v18c0 3.314 2.686 6 6 6h18c3.314 0 6-2.686 6-6v-18c0-3.314-2.686-6-6-6z"/><path d="m496 408h-18c-3.314 0-6 2.686-6 6v18c0 3.314 2.686 6 6 6h18c3.314 0 6-2.686 6-6v-18c0-3.314-2.686-6-6-6z"/><path d="m530 408h-18c-3.314 0-6 2.686-6 6v18c0 3.314 2.686 6 6 6h18c3.314 0 6-2.686 6-6v-18c0-3.314-2.686-6-6-6z"/><path d="m666 408h-18c-3.314 0-6 2.686-6 6v18c0 3.314 2.686 6 6 6h18c3.314 0 6-2.686 6-6v-18c0-3.314-2.686-6-6-6z"/><path d="m20.0001 238h-18.00004c-3.31371 0-6 2.686-6 6v18c0 3.314 2.68629 6 6 6h18.00004c3.3137 0 6-2.686 6-6v-18c0-3.314-2.6863-6-6-6z"/><path d="m88.0001 238h-18c-3.3137 0-6 2.686-6 6v18c0 3.314 2.6863 6 6 6h18c3.3137 0 6-2.686 6-6v-18c0-3.314-2.6863-6-6-6z"/><path d="m122 238h-18c-3.314 0-5.9999 2.686-5.9999 6v18c0 3.314 2.6859 6 5.9999 6h18c3.314 0 6-2.686 6-6v-18c0-3.314-2.686-6-6-6z" opacity=".2"/><path d="m156 238h-18c-3.314 0-6 2.686-6 6v18c0 3.314 2.686 6 6 6h18c3.314 0 6-2.686 6-6v-18c0-3.314-2.686-6-6-6z"/><path d="m190 238h-18c-3.314 0-6 2.686-6 6v18c0 3.314 2.686 6 6 6h18c3.314 0 6-2.686 6-6v-18c0-3.314-2.686-6-6-6z"/><path d="m224 238h-18c-3.314 0-6 2.686-6 6v18c0 3.314 2.686 6 6 6h18c3.314 0 6-2.686 6-6v-18c0-3.314-2.686-6-6-6z"/><path d="m258 238h-18c-3.314 0-6 2.686-6 6v18c0 3.314 2.686 6 6 6h18c3.314 0 6-2.686 6-6v-18c0-3.314-2.686-6-6-6z"/><path d="m360 238h-18c-3.314 0-6 2.686-6 6v18c0 3.314 2.686 6 6 6h18c3.314 0 6-2.686 6-6v-18c0-3.314-2.686-6-6-6z"/><path d="m394 238h-18c-3.314 0-6 2.686-6 6v18c0 3.314 2.686 6 6 6h18c3.314 0 6-2.686 6-6v-18c0-3.314-2.686-6-6-6z"/><path d="m428 238h-18c-3.314 0-6 2.686-6 6v18c0 3.314 2.686 6 6 6h18c3.314 0 6-2.686 6-6v-18c0-3.314-2.686-6-6-6z"/><path d="m462 238h-18c-3.314 0-6 2.686-6 6v18c0 3.314 2.686 6 6 6h18c3.314 0 6-2.686 6-6v-18c0-3.314-2.686-6-6-6z"/><path d="m496 238h-18c-3.314 0-6 2.686-6 6v18c0 3.314 2.686 6 6 6h18c3.314 0 6-2.686 6-6v-18c0-3.314-2.686-6-6-6z"/><path d="m598 238h-18c-3.314 0-6 2.686-6 6v18c0 3.314 2.686 6 6 6h18c3.314 0 6-2.686 6-6v-18c0-3.314-2.686-6-6-6z"/><path d="m632 238h-18c-3.314 0-6 2.686-6 6v18c0 3.314 2.686 6 6 6h18c3.314 0 6-2.686 6-6v-18c0-3.314-2.686-6-6-6z" opacity=".3"/><path d="m666 238h-18c-3.314 0-6 2.686-6 6v18c0 3.314 2.686 6 6 6h18c3.314 0 6-2.686 6-6v-18c0-3.314-2.686-6-6-6z"/><path d="m700 238h-18c-3.314 0-6 2.686-6 6v18c0 3.314 2.686 6 6 6h18c3.314 0 6-2.686 6-6v-18c0-3.314-2.686-6-6-6z"/><path d="m20.0001 272h-18.00004c-3.31371 0-6 2.686-6 6v18c0 3.314 2.68629 6 6 6h18.00004c3.3137 0 6-2.686 6-6v-18c0-3.314-2.6863-6-6-6z"/><path d="m54.0001 272h-18c-3.3137 0-6 2.686-6 6v18c0 3.314 2.6863 6 6 6h18c3.3137 0 6-2.686 6-6v-18c0-3.314-2.6863-6-6-6z"/><path d="m88.0001 272h-18c-3.3137 0-6 2.686-6 6v18c0 3.314 2.6863 6 6 6h18c3.3137 0 6-2.686 6-6v-18c0-3.314-2.6863-6-6-6z"/><path d="m122 272h-18c-3.314 0-5.9999 2.686-5.9999 6v18c0 3.314 2.6859 6 5.9999 6h18c3.314 0 6-2.686 6-6v-18c0-3.314-2.686-6-6-6z"/><path d="m156 272h-18c-3.314 0-6 2.686-6 6v18c0 3.314 2.686 6 6 6h18c3.314 0 6-2.686 6-6v-18c0-3.314-2.686-6-6-6z"/><path d="m190 272h-18c-3.314 0-6 2.686-6 6v18c0 3.314 2.686 6 6 6h18c3.314 0 6-2.686 6-6v-18c0-3.314-2.686-6-6-6z" opacity=".3"/><path d="m224 272h-18c-3.314 0-6 2.686-6 6v18c0 3.314 2.686 6 6 6h18c3.314 0 6-2.686 6-6v-18c0-3.314-2.686-6-6-6z" opacity=".3"/><path d="m258 272h-18c-3.314 0-6 2.686-6 6v18c0 3.314 2.686 6 6 6h18c3.314 0 6-2.686 6-6v-18c0-3.314-2.686-6-6-6z"/><path d="m292 272h-18c-3.314 0-6 2.686-6 6v18c0 3.314 2.686 6 6 6h18c3.314 0 6-2.686 6-6v-18c0-3.314-2.686-6-6-6z"/><path d="m326 272h-18c-3.314 0-6 2.686-6 6v18c0 3.314 2.686 6 6 6h18c3.314 0 6-2.686 6-6v-18c0-3.314-2.686-6-6-6z" opacity=".5"/><path d="m360 272h-18c-3.314 0-6 2.686-6 6v18c0 3.314 2.686 6 6 6h18c3.314 0 6-2.686 6-6v-18c0-3.314-2.686-6-6-6z"/><path d="m428 272h-18c-3.314 0-6 2.686-6 6v18c0 3.314 2.686 6 6 6h18c3.314 0 6-2.686 6-6v-18c0-3.314-2.686-6-6-6z"/><path d="m496 272h-18c-3.314 0-6 2.686-6 6v18c0 3.314 2.686 6 6 6h18c3.314 0 6-2.686 6-6v-18c0-3.314-2.686-6-6-6z"/><path d="m530 272h-18c-3.314 0-6 2.686-6 6v18c0 3.314 2.686 6 6 6h18c3.314 0 6-2.686 6-6v-18c0-3.314-2.686-6-6-6z"/><path d="m564 272h-18c-3.314 0-6 2.686-6 6v18c0 3.314 2.686 6 6 6h18c3.314 0 6-2.686 6-6v-18c0-3.314-2.686-6-6-6z"/><path d="m598 272h-18c-3.314 0-6 2.686-6 6v18c0 3.314 2.686 6 6 6h18c3.314 0 6-2.686 6-6v-18c0-3.314-2.686-6-6-6z"/><path d="m632 272h-18c-3.314 0-6 2.686-6 6v18c0 3.314 2.686 6 6 6h18c3.314 0 6-2.686 6-6v-18c0-3.314-2.686-6-6-6z"/><path d="m666 272h-18c-3.314 0-6 2.686-6 6v18c0 3.314 2.686 6 6 6h18c3.314 0 6-2.686 6-6v-18c0-3.314-2.686-6-6-6z"/><path d="m700 272h-18c-3.314 0-6 2.686-6 6v18c0 3.314 2.686 6 6 6h18c3.314 0 6-2.686 6-6v-18c0-3.314-2.686-6-6-6z"/><path d="m54.0001 170h-18c-3.3137 0-6 2.686-6 6v18c0 3.314 2.6863 6 6 6h18c3.3137 0 6-2.686 6-6v-18c0-3.314-2.6863-6-6-6z"/><path d="m156 170h-18c-3.314 0-6 2.686-6 6v18c0 3.314 2.686 6 6 6h18c3.314 0 6-2.686 6-6v-18c0-3.314-2.686-6-6-6z"/><path d="m190 170h-18c-3.314 0-6 2.686-6 6v18c0 3.314 2.686 6 6 6h18c3.314 0 6-2.686 6-6v-18c0-3.314-2.686-6-6-6z"/><path d="m224 170h-18c-3.314 0-6 2.686-6 6v18c0 3.314 2.686 6 6 6h18c3.314 0 6-2.686 6-6v-18c0-3.314-2.686-6-6-6z"/><path d="m258 170h-18c-3.314 0-6 2.686-6 6v18c0 3.314 2.686 6 6 6h18c3.314 0 6-2.686 6-6v-18c0-3.314-2.686-6-6-6z" opacity=".6"/><path d="m292 170h-18c-3.314 0-6 2.686-6 6v18c0 3.314 2.686 6 6 6h18c3.314 0 6-2.686 6-6v-18c0-3.314-2.686-6-6-6z" opacity=".3"/><path d="m326 170h-18c-3.314 0-6 2.686-6 6v18c0 3.314 2.686 6 6 6h18c3.314 0 6-2.686 6-6v-18c0-3.314-2.686-6-6-6z" opacity=".3"/><path d="m360 170h-18c-3.314 0-6 2.686-6 6v18c0 3.314 2.686 6 6 6h18c3.314 0 6-2.686 6-6v-18c0-3.314-2.686-6-6-6z"/><path d="m428 170h-18c-3.314 0-6 2.686-6 6v18c0 3.314 2.686 6 6 6h18c3.314 0 6-2.686 6-6v-18c0-3.314-2.686-6-6-6z"/><path d="m462 170h-18c-3.314 0-6 2.686-6 6v18c0 3.314 2.686 6 6 6h18c3.314 0 6-2.686 6-6v-18c0-3.314-2.686-6-6-6z"/><path d="m496 170h-18c-3.314 0-6 2.686-6 6v18c0 3.314 2.686 6 6 6h18c3.314 0 6-2.686 6-6v-18c0-3.314-2.686-6-6-6z"/><path d="m530 170h-18c-3.314 0-6 2.686-6 6v18c0 3.314 2.686 6 6 6h18c3.314 0 6-2.686 6-6v-18c0-3.314-2.686-6-6-6z" opacity=".7"/><path d="m564 170h-18c-3.314 0-6 2.686-6 6v18c0 3.314 2.686 6 6 6h18c3.314 0 6-2.686 6-6v-18c0-3.314-2.686-6-6-6z"/><path d="m598 170h-18c-3.314 0-6 2.686-6 6v18c0 3.314 2.686 6 6 6h18c3.314 0 6-2.686 6-6v-18c0-3.314-2.686-6-6-6z" opacity=".8"/><path d="m632 170h-18c-3.314 0-6 2.686-6 6v18c0 3.314 2.686 6 6 6h18c3.314 0 6-2.686 6-6v-18c0-3.314-2.686-6-6-6z"/><path d="m700 170h-18c-3.314 0-6 2.686-6 6v18c0 3.314 2.686 6 6 6h18c3.314 0 6-2.686 6-6v-18c0-3.314-2.686-6-6-6z"/><path d="m54.0001 204h-18c-3.3137 0-6 2.686-6 6v18c0 3.314 2.6863 6 6 6h18c3.3137 0 6-2.686 6-6v-18c0-3.314-2.6863-6-6-6z"/><path d="m88.0001 204h-18c-3.3137 0-6 2.686-6 6v18c0 3.314 2.6863 6 6 6h18c3.3137 0 6-2.686 6-6v-18c0-3.314-2.6863-6-6-6z"/><path d="m122 204h-18c-3.314 0-5.9999 2.686-5.9999 6v18c0 3.314 2.6859 6 5.9999 6h18c3.314 0 6-2.686 6-6v-18c0-3.314-2.686-6-6-6z"/><path d="m190 204h-18c-3.314 0-6 2.686-6 6v18c0 3.314 2.686 6 6 6h18c3.314 0 6-2.686 6-6v-18c0-3.314-2.686-6-6-6z" opacity=".3"/><path d="m224 204h-18c-3.314 0-6 2.686-6 6v18c0 3.314 2.686 6 6 6h18c3.314 0 6-2.686 6-6v-18c0-3.314-2.686-6-6-6z"/><path d="m292 204h-18c-3.314 0-6 2.686-6 6v18c0 3.314 2.686 6 6 6h18c3.314 0 6-2.686 6-6v-18c0-3.314-2.686-6-6-6z"/><path d="m326 204h-18c-3.314 0-6 2.686-6 6v18c0 3.314 2.686 6 6 6h18c3.314 0 6-2.686 6-6v-18c0-3.314-2.686-6-6-6z"/><path d="m360 204h-18c-3.314 0-6 2.686-6 6v18c0 3.314 2.686 6 6 6h18c3.314 0 6-2.686 6-6v-18c0-3.314-2.686-6-6-6z"/><path d="m428 204h-18c-3.314 0-6 2.686-6 6v18c0 3.314 2.686 6 6 6h18c3.314 0 6-2.686 6-6v-18c0-3.314-2.686-6-6-6z" opacity=".5"/><path d="m462 204h-18c-3.314 0-6 2.686-6 6v18c0 3.314 2.686 6 6 6h18c3.314 0 6-2.686 6-6v-18c0-3.314-2.686-6-6-6z"/><path d="m530 204h-18c-3.314 0-6 2.686-6 6v18c0 3.314 2.686 6 6 6h18c3.314 0 6-2.686 6-6v-18c0-3.314-2.686-6-6-6z"/><path d="m598 204h-18c-3.314 0-6 2.686-6 6v18c0 3.314 2.686 6 6 6h18c3.314 0 6-2.686 6-6v-18c0-3.314-2.686-6-6-6z"/><path d="m666 204h-18c-3.314 0-6 2.686-6 6v18c0 3.314 2.686 6 6 6h18c3.314 0 6-2.686 6-6v-18c0-3.314-2.686-6-6-6z"/><path d="m700 204h-18c-3.314 0-6 2.686-6 6v18c0 3.314 2.686 6 6 6h18c3.314 0 6-2.686 6-6v-18c0-3.314-2.686-6-6-6z"/><path d="m20.0001 306h-18.00004c-3.31371 0-6 2.686-6 6v18c0 3.314 2.68629 6 6 6h18.00004c3.3137 0 6-2.686 6-6v-18c0-3.314-2.6863-6-6-6z" opacity=".3"/><path d="m54.0001 306h-18c-3.3137 0-6 2.686-6 6v18c0 3.314 2.6863 6 6 6h18c3.3137 0 6-2.686 6-6v-18c0-3.314-2.6863-6-6-6z" opacity=".3"/><path d="m122 306h-18c-3.314 0-5.9999 2.686-5.9999 6v18c0 3.314 2.6859 6 5.9999 6h18c3.314 0 6-2.686 6-6v-18c0-3.314-2.686-6-6-6z"/><path d="m190 306h-18c-3.314 0-6 2.686-6 6v18c0 3.314 2.686 6 6 6h18c3.314 0 6-2.686 6-6v-18c0-3.314-2.686-6-6-6z"/><path d="m224 306h-18c-3.314 0-6 2.686-6 6v18c0 3.314 2.686 6 6 6h18c3.314 0 6-2.686 6-6v-18c0-3.314-2.686-6-6-6z"/><path d="m258 306h-18c-3.314 0-6 2.686-6 6v18c0 3.314 2.686 6 6 6h18c3.314 0 6-2.686 6-6v-18c0-3.314-2.686-6-6-6z"/><path d="m326 306h-18c-3.314 0-6 2.686-6 6v18c0 3.314 2.686 6 6 6h18c3.314 0 6-2.686 6-6v-18c0-3.314-2.686-6-6-6z" opacity=".5"/><path d="m360 306h-18c-3.314 0-6 2.686-6 6v18c0 3.314 2.686 6 6 6h18c3.314 0 6-2.686 6-6v-18c0-3.314-2.686-6-6-6z"/><path d="m394 306h-18c-3.314 0-6 2.686-6 6v18c0 3.314 2.686 6 6 6h18c3.314 0 6-2.686 6-6v-18c0-3.314-2.686-6-6-6z"/><path d="m428 306h-18c-3.314 0-6 2.686-6 6v18c0 3.314 2.686 6 6 6h18c3.314 0 6-2.686 6-6v-18c0-3.314-2.686-6-6-6z" opacity=".5"/><path d="m496 306h-18c-3.314 0-6 2.686-6 6v18c0 3.314 2.686 6 6 6h18c3.314 0 6-2.686 6-6v-18c0-3.314-2.686-6-6-6z" opacity=".2"/><path d="m530 306h-18c-3.314 0-6 2.686-6 6v18c0 3.314 2.686 6 6 6h18c3.314 0 6-2.686 6-6v-18c0-3.314-2.686-6-6-6z"/><path d="m564 306h-18c-3.314 0-6 2.686-6 6v18c0 3.314 2.686 6 6 6h18c3.314 0 6-2.686 6-6v-18c0-3.314-2.686-6-6-6z"/><path d="m598 306h-18c-3.314 0-6 2.686-6 6v18c0 3.314 2.686 6 6 6h18c3.314 0 6-2.686 6-6v-18c0-3.314-2.686-6-6-6z" opacity=".2"/><path d="m632 306h-18c-3.314 0-6 2.686-6 6v18c0 3.314 2.686 6 6 6h18c3.314 0 6-2.686 6-6v-18c0-3.314-2.686-6-6-6z"/><path d="m700 306h-18c-3.314 0-6 2.686-6 6v18c0 3.314 2.686 6 6 6h18c3.314 0 6-2.686 6-6v-18c0-3.314-2.686-6-6-6z"/><path d="m20.0001 340h-18.00004c-3.31371 0-6 2.686-6 6v18c0 3.314 2.68629 6 6 6h18.00004c3.3137 0 6-2.686 6-6v-18c0-3.314-2.6863-6-6-6z" opacity=".5"/><path d="m54.0001 340h-18c-3.3137 0-6 2.686-6 6v18c0 3.314 2.6863 6 6 6h18c3.3137 0 6-2.686 6-6v-18c0-3.314-2.6863-6-6-6z"/><path d="m88.0001 340h-18c-3.3137 0-6 2.686-6 6v18c0 3.314 2.6863 6 6 6h18c3.3137 0 6-2.686 6-6v-18c0-3.314-2.6863-6-6-6z" opacity=".3"/><path d="m122 340h-18c-3.314 0-5.9999 2.686-5.9999 6v18c0 3.314 2.6859 6 5.9999 6h18c3.314 0 6-2.686 6-6v-18c0-3.314-2.686-6-6-6z"/><path d="m190 340h-18c-3.314 0-6 2.686-6 6v18c0 3.314 2.686 6 6 6h18c3.314 0 6-2.686 6-6v-18c0-3.314-2.686-6-6-6z" opacity=".5"/><path d="m258 340h-18c-3.314 0-6 2.686-6 6v18c0 3.314 2.686 6 6 6h18c3.314 0 6-2.686 6-6v-18c0-3.314-2.686-6-6-6z"/><path d="m292 340h-18c-3.314 0-6 2.686-6 6v18c0 3.314 2.686 6 6 6h18c3.314 0 6-2.686 6-6v-18c0-3.314-2.686-6-6-6z"/><path d="m326 340h-18c-3.314 0-6 2.686-6 6v18c0 3.314 2.686 6 6 6h18c3.314 0 6-2.686 6-6v-18c0-3.314-2.686-6-6-6z"/><path d="m394 340h-18c-3.314 0-6 2.686-6 6v18c0 3.314 2.686 6 6 6h18c3.314 0 6-2.686 6-6v-18c0-3.314-2.686-6-6-6z"/><path d="m428 340h-18c-3.314 0-6 2.686-6 6v18c0 3.314 2.686 6 6 6h18c3.314 0 6-2.686 6-6v-18c0-3.314-2.686-6-6-6z"/><path d="m462 340h-18c-3.314 0-6 2.686-6 6v18c0 3.314 2.686 6 6 6h18c3.314 0 6-2.686 6-6v-18c0-3.314-2.686-6-6-6z"/><path d="m496 340h-18c-3.314 0-6 2.686-6 6v18c0 3.314 2.686 6 6 6h18c3.314 0 6-2.686 6-6v-18c0-3.314-2.686-6-6-6z"/><path d="m530 340h-18c-3.314 0-6 2.686-6 6v18c0 3.314 2.686 6 6 6h18c3.314 0 6-2.686 6-6v-18c0-3.314-2.686-6-6-6z"/><path d="m632 340h-18c-3.314 0-6 2.686-6 6v18c0 3.314 2.686 6 6 6h18c3.314 0 6-2.686 6-6v-18c0-3.314-2.686-6-6-6z"/><path d="m666 340h-18c-3.314 0-6 2.686-6 6v18c0 3.314 2.686 6 6 6h18c3.314 0 6-2.686 6-6v-18c0-3.314-2.686-6-6-6z"/><path d="m700 340h-18c-3.314 0-6 2.686-6 6v18c0 3.314 2.686 6 6 6h18c3.314 0 6-2.686 6-6v-18c0-3.314-2.686-6-6-6z"/><path d="m20.0001 102h-18.00004c-3.31371 0-6 2.686-6 6v18c0 3.314 2.68629 6 6 6h18.00004c3.3137 0 6-2.686 6-6v-18c0-3.314-2.6863-6-6-6z"/><path d="m54.0001 102h-18c-3.3137 0-6 2.686-6 6v18c0 3.314 2.6863 6 6 6h18c3.3137 0 6-2.686 6-6v-18c0-3.314-2.6863-6-6-6z"/><path d="m88.0001 102h-18c-3.3137 0-6 2.686-6 6v18c0 3.314 2.6863 6 6 6h18c3.3137 0 6-2.686 6-6v-18c0-3.314-2.6863-6-6-6z"/><path d="m122 102h-18c-3.314 0-5.9999 2.686-5.9999 6v18c0 3.314 2.6859 6 5.9999 6h18c3.314 0 6-2.686 6-6v-18c0-3.314-2.686-6-6-6z"/><path d="m156 102h-18c-3.314 0-6 2.686-6 6v18c0 3.314 2.686 6 6 6h18c3.314 0 6-2.686 6-6v-18c0-3.314-2.686-6-6-6z"/><path d="m190 102h-18c-3.314 0-6 2.686-6 6v18c0 3.314 2.686 6 6 6h18c3.314 0 6-2.686 6-6v-18c0-3.314-2.686-6-6-6z"/><path d="m224 102h-18c-3.314 0-6 2.686-6 6v18c0 3.314 2.686 6 6 6h18c3.314 0 6-2.686 6-6v-18c0-3.314-2.686-6-6-6z" opacity=".3"/><path d="m258 102h-18c-3.314 0-6 2.686-6 6v18c0 3.314 2.686 6 6 6h18c3.314 0 6-2.686 6-6v-18c0-3.314-2.686-6-6-6z"/><path d="m292 102h-18c-3.314 0-6 2.686-6 6v18c0 3.314 2.686 6 6 6h18c3.314 0 6-2.686 6-6v-18c0-3.314-2.686-6-6-6z"/><path d="m326 102h-18c-3.314 0-6 2.686-6 6v18c0 3.314 2.686 6 6 6h18c3.314 0 6-2.686 6-6v-18c0-3.314-2.686-6-6-6z"/><path d="m360 102h-18c-3.314 0-6 2.686-6 6v18c0 3.314 2.686 6 6 6h18c3.314 0 6-2.686 6-6v-18c0-3.314-2.686-6-6-6z"/><path d="m394 102h-18c-3.314 0-6 2.686-6 6v18c0 3.314 2.686 6 6 6h18c3.314 0 6-2.686 6-6v-18c0-3.314-2.686-6-6-6z" opacity=".3"/><path d="m462 102h-18c-3.314 0-6 2.686-6 6v18c0 3.314 2.686 6 6 6h18c3.314 0 6-2.686 6-6v-18c0-3.314-2.686-6-6-6z" opacity=".3"/><path d="m496 102h-18c-3.314 0-6 2.686-6 6v18c0 3.314 2.686 6 6 6h18c3.314 0 6-2.686 6-6v-18c0-3.314-2.686-6-6-6z"/><path d="m530 102h-18c-3.314 0-6 2.686-6 6v18c0 3.314 2.686 6 6 6h18c3.314 0 6-2.686 6-6v-18c0-3.314-2.686-6-6-6z" opacity=".5"/><path d="m564 102h-18c-3.314 0-6 2.686-6 6v18c0 3.314 2.686 6 6 6h18c3.314 0 6-2.686 6-6v-18c0-3.314-2.686-6-6-6z"/><path d="m598 102h-18c-3.314 0-6 2.686-6 6v18c0 3.314 2.686 6 6 6h18c3.314 0 6-2.686 6-6v-18c0-3.314-2.686-6-6-6z"/><path d="m632 102h-18c-3.314 0-6 2.686-6 6v18c0 3.314 2.686 6 6 6h18c3.314 0 6-2.686 6-6v-18c0-3.314-2.686-6-6-6z" opacity=".3"/><path d="m666 102h-18c-3.314 0-6 2.686-6 6v18c0 3.314 2.686 6 6 6h18c3.314 0 6-2.686 6-6v-18c0-3.314-2.686-6-6-6z"/><path d="m700 102h-18c-3.314 0-6 2.686-6 6v18c0 3.314 2.686 6 6 6h18c3.314 0 6-2.686 6-6v-18c0-3.314-2.686-6-6-6z"/><path d="m20.0001 34h-18.00004c-3.31371 0-6 2.6863-6 6v18c0 3.3137 2.68629 6 6 6h18.00004c3.3137 0 6-2.6863 6-6v-18c0-3.3137-2.6863-6-6-6z" opacity=".5"/><path d="m88.0001 34h-18c-3.3137 0-6 2.6863-6 6v18c0 3.3137 2.6863 6 6 6h18c3.3137 0 6-2.6863 6-6v-18c0-3.3137-2.6863-6-6-6z"/><path d="m122 34h-18c-3.314 0-5.9999 2.6863-5.9999 6v18c0 3.3137 2.6859 6 5.9999 6h18c3.314 0 6-2.6863 6-6v-18c0-3.3137-2.686-6-6-6z"/><path d="m156 34h-18c-3.314 0-6 2.6863-6 6v18c0 3.3137 2.686 6 6 6h18c3.314 0 6-2.6863 6-6v-18c0-3.3137-2.686-6-6-6z"/><path d="m224 34h-18c-3.314 0-6 2.6863-6 6v18c0 3.3137 2.686 6 6 6h18c3.314 0 6-2.6863 6-6v-18c0-3.3137-2.686-6-6-6z"/><path d="m292 34h-18c-3.314 0-6 2.6863-6 6v18c0 3.3137 2.686 6 6 6h18c3.314 0 6-2.6863 6-6v-18c0-3.3137-2.686-6-6-6z"/><path d="m326 34h-18c-3.314 0-6 2.6863-6 6v18c0 3.3137 2.686 6 6 6h18c3.314 0 6-2.6863 6-6v-18c0-3.3137-2.686-6-6-6z"/><path d="m360 34h-18c-3.314 0-6 2.6863-6 6v18c0 3.3137 2.686 6 6 6h18c3.314 0 6-2.6863 6-6v-18c0-3.3137-2.686-6-6-6z"/><path d="m394 34h-18c-3.314 0-6 2.6863-6 6v18c0 3.3137 2.686 6 6 6h18c3.314 0 6-2.6863 6-6v-18c0-3.3137-2.686-6-6-6z"/><path d="m496 34h-18c-3.314 0-6 2.6863-6 6v18c0 3.3137 2.686 6 6 6h18c3.314 0 6-2.6863 6-6v-18c0-3.3137-2.686-6-6-6z"/><path d="m564 34h-18c-3.314 0-6 2.6863-6 6v18c0 3.3137 2.686 6 6 6h18c3.314 0 6-2.6863 6-6v-18c0-3.3137-2.686-6-6-6z" opacity=".3"/><path d="m598 34h-18c-3.314 0-6 2.6863-6 6v18c0 3.3137 2.686 6 6 6h18c3.314 0 6-2.6863 6-6v-18c0-3.3137-2.686-6-6-6z" opacity=".3"/><path d="m632 34h-18c-3.314 0-6 2.6863-6 6v18c0 3.3137 2.686 6 6 6h18c3.314 0 6-2.6863 6-6v-18c0-3.3137-2.686-6-6-6z"/><path d="m666 34h-18c-3.314 0-6 2.6863-6 6v18c0 3.3137 2.686 6 6 6h18c3.314 0 6-2.6863 6-6v-18c0-3.3137-2.686-6-6-6z"/><path d="m700 34h-18c-3.314 0-6 2.6863-6 6v18c0 3.3137 2.686 6 6 6h18c3.314 0 6-2.6863 6-6v-18c0-3.3137-2.686-6-6-6z"/><path d="m54.0001-.00000024-18 .00000018c-3.3137.00000003-6 2.68629006-6 6.00000006v18c0 3.3137 2.6863 6 6 6h18c3.3137 0 6-2.6863 6-6v-18c0-3.31371-2.6863-6.00000028-6-6.00000024z"/><path d="m88.0001-.00000024-18 .00000018c-3.3137.00000003-6 2.68629006-6 6.00000006v18c0 3.3137 2.6863 6 6 6h18c3.3137 0 6-2.6863 6-6v-18c0-3.31371-2.6863-6.00000028-6-6.00000024z"/><path d="m122-.00000024-18 .00000018c-3.314.00000003-5.9999 2.68629006-5.9999 6.00000006v18c0 3.3137 2.6859 6 5.9999 6h18c3.314 0 6-2.6863 6-6v-18c0-3.31371-2.686-6.00000028-6-6.00000024z"/><path d="m394-.00000024-18 .00000018c-3.314.00000003-6 2.68629006-6 6.00000006v18c0 3.3137 2.686 6 6 6h18c3.314 0 6-2.6863 6-6v-18c0-3.31371-2.686-6.00000028-6-6.00000024z"/><path d="m428-.00000024-18 .00000018c-3.314.00000003-6 2.68629006-6 6.00000006v18c0 3.3137 2.686 6 6 6h18c3.314 0 6-2.6863 6-6v-18c0-3.31371-2.686-6.00000028-6-6.00000024z"/><path d="m496-.00000024-18 .00000018c-3.314.00000003-6 2.68629006-6 6.00000006v18c0 3.3137 2.686 6 6 6h18c3.314 0 6-2.6863 6-6v-18c0-3.31371-2.686-6.00000028-6-6.00000024z"/><path d="m530-.00000024-18 .00000018c-3.314.00000003-6 2.68629006-6 6.00000006v18c0 3.3137 2.686 6 6 6h18c3.314 0 6-2.6863 6-6v-18c0-3.31371-2.686-6.00000028-6-6.00000024z"/><path d="m632-.00000024-18 .00000018c-3.314.00000003-6 2.68629006-6 6.00000006v18c0 3.3137 2.686 6 6 6h18c3.314 0 6-2.6863 6-6v-18c0-3.31371-2.686-6.00000028-6-6.00000024z" opacity=".3"/><path d="m700-.00000024-18 .00000018c-3.314.00000003-6 2.68629006-6 6.00000006v18c0 3.3137 2.686 6 6 6h18c3.314 0 6-2.6863 6-6v-18c0-3.31371-2.686-6.00000028-6-6.00000024z"/><path d="m734 374h-18c-3.314 0-6 2.686-6 6v18c0 3.314 2.686 6 6 6h18c3.314 0 6-2.686 6-6v-18c0-3.314-2.686-6-6-6z"/><path d="m734 68h-18c-3.314 0-6 2.6863-6 6v18c0 3.3137 2.686 6 6 6h18c3.314 0 6-2.6863 6-6v-18c0-3.3137-2.686-6-6-6z"/><path d="m734 136h-18c-3.314 0-6 2.686-6 6v18c0 3.314 2.686 6 6 6h18c3.314 0 6-2.686 6-6v-18c0-3.314-2.686-6-6-6z"/><path d="m734 170h-18c-3.314 0-6 2.686-6 6v18c0 3.314 2.686 6 6 6h18c3.314 0 6-2.686 6-6v-18c0-3.314-2.686-6-6-6z"/><path d="m734 272h-18c-3.314 0-6 2.686-6 6v18c0 3.314 2.686 6 6 6h18c3.314 0 6-2.686 6-6v-18c0-3.314-2.686-6-6-6z"/><path d="m734 238h-18c-3.314 0-6 2.686-6 6v18c0 3.314 2.686 6 6 6h18c3.314 0 6-2.686 6-6v-18c0-3.314-2.686-6-6-6z"/><path d="m734 204h-18c-3.314 0-6 2.686-6 6v18c0 3.314 2.686 6 6 6h18c3.314 0 6-2.686 6-6v-18c0-3.314-2.686-6-6-6z"/><path d="m734 306h-18c-3.314 0-6 2.686-6 6v18c0 3.314 2.686 6 6 6h18c3.314 0 6-2.686 6-6v-18c0-3.314-2.686-6-6-6z"/><path d="m734 340h-18c-3.314 0-6 2.686-6 6v18c0 3.314 2.686 6 6 6h18c3.314 0 6-2.686 6-6v-18c0-3.314-2.686-6-6-6z"/><path d="m768 68h-18c-3.314 0-6 2.6863-6 6v18c0 3.3137 2.686 6 6 6h18c3.314 0 6-2.6863 6-6v-18c0-3.3137-2.686-6-6-6z"/><path d="m802 68h-18c-3.314 0-6 2.6863-6 6v18c0 3.3137 2.686 6 6 6h18c3.314 0 6-2.6863 6-6v-18c0-3.3137-2.686-6-6-6z"/><path d="m836 68h-18c-3.314 0-6 2.6863-6 6v18c0 3.3137 2.686 6 6 6h18c3.314 0 6-2.6863 6-6v-18c0-3.3137-2.686-6-6-6z"/><path d="m768 136h-18c-3.314 0-6 2.686-6 6v18c0 3.314 2.686 6 6 6h18c3.314 0 6-2.686 6-6v-18c0-3.314-2.686-6-6-6z"/><path d="m802 136h-18c-3.314 0-6 2.686-6 6v18c0 3.314 2.686 6 6 6h18c3.314 0 6-2.686 6-6v-18c0-3.314-2.686-6-6-6z"/><path d="m836 136h-18c-3.314 0-6 2.686-6 6v18c0 3.314 2.686 6 6 6h18c3.314 0 6-2.686 6-6v-18c0-3.314-2.686-6-6-6z"/><path d="m768 374h-18c-3.314 0-6 2.686-6 6v18c0 3.314 2.686 6 6 6h18c3.314 0 6-2.686 6-6v-18c0-3.314-2.686-6-6-6z"/><path d="m802 374h-18c-3.314 0-6 2.686-6 6v18c0 3.314 2.686 6 6 6h18c3.314 0 6-2.686 6-6v-18c0-3.314-2.686-6-6-6z" opacity=".3"/><path d="m836 374h-18c-3.314 0-6 2.686-6 6v18c0 3.314 2.686 6 6 6h18c3.314 0 6-2.686 6-6v-18c0-3.314-2.686-6-6-6z"/><path d="m836 408h-18c-3.314 0-6 2.686-6 6v18c0 3.314 2.686 6 6 6h18c3.314 0 6-2.686 6-6v-18c0-3.314-2.686-6-6-6z"/><path d="m768 238h-18c-3.314 0-6 2.686-6 6v18c0 3.314 2.686 6 6 6h18c3.314 0 6-2.686 6-6v-18c0-3.314-2.686-6-6-6z" opacity=".3"/><path d="m802 238h-18c-3.314 0-6 2.686-6 6v18c0 3.314 2.686 6 6 6h18c3.314 0 6-2.686 6-6v-18c0-3.314-2.686-6-6-6z"/><path d="m836 238h-18c-3.314 0-6 2.686-6 6v18c0 3.314 2.686 6 6 6h18c3.314 0 6-2.686 6-6v-18c0-3.314-2.686-6-6-6z"/><path d="m802 272h-18c-3.314 0-6 2.686-6 6v18c0 3.314 2.686 6 6 6h18c3.314 0 6-2.686 6-6v-18c0-3.314-2.686-6-6-6z"/><path d="m836 272h-18c-3.314 0-6 2.686-6 6v18c0 3.314 2.686 6 6 6h18c3.314 0 6-2.686 6-6v-18c0-3.314-2.686-6-6-6z" opacity=".5"/><path d="m802 170h-18c-3.314 0-6 2.686-6 6v18c0 3.314 2.686 6 6 6h18c3.314 0 6-2.686 6-6v-18c0-3.314-2.686-6-6-6z" opacity=".3"/><path d="m836 170h-18c-3.314 0-6 2.686-6 6v18c0 3.314 2.686 6 6 6h18c3.314 0 6-2.686 6-6v-18c0-3.314-2.686-6-6-6z"/><path d="m768 204h-18c-3.314 0-6 2.686-6 6v18c0 3.314 2.686 6 6 6h18c3.314 0 6-2.686 6-6v-18c0-3.314-2.686-6-6-6z"/><path d="m802 204h-18c-3.314 0-6 2.686-6 6v18c0 3.314 2.686 6 6 6h18c3.314 0 6-2.686 6-6v-18c0-3.314-2.686-6-6-6z"/><path d="m768 306h-18c-3.314 0-6 2.686-6 6v18c0 3.314 2.686 6 6 6h18c3.314 0 6-2.686 6-6v-18c0-3.314-2.686-6-6-6z"/><path d="m802 306h-18c-3.314 0-6 2.686-6 6v18c0 3.314 2.686 6 6 6h18c3.314 0 6-2.686 6-6v-18c0-3.314-2.686-6-6-6z"/><path d="m836 306h-18c-3.314 0-6 2.686-6 6v18c0 3.314 2.686 6 6 6h18c3.314 0 6-2.686 6-6v-18c0-3.314-2.686-6-6-6z"/><path d="m768 340h-18c-3.314 0-6 2.686-6 6v18c0 3.314 2.686 6 6 6h18c3.314 0 6-2.686 6-6v-18c0-3.314-2.686-6-6-6z" opacity=".3"/><path d="m836 340h-18c-3.314 0-6 2.686-6 6v18c0 3.314 2.686 6 6 6h18c3.314 0 6-2.686 6-6v-18c0-3.314-2.686-6-6-6z"/><path d="m802 102h-18c-3.314 0-6 2.686-6 6v18c0 3.314 2.686 6 6 6h18c3.314 0 6-2.686 6-6v-18c0-3.314-2.686-6-6-6z" opacity=".5"/><path d="m836 102h-18c-3.314 0-6 2.686-6 6v18c0 3.314 2.686 6 6 6h18c3.314 0 6-2.686 6-6v-18c0-3.314-2.686-6-6-6z"/><path d="m768 34h-18c-3.314 0-6 2.6863-6 6v18c0 3.3137 2.686 6 6 6h18c3.314 0 6-2.6863 6-6v-18c0-3.3137-2.686-6-6-6z"/><path d="m802 34h-18c-3.314 0-6 2.6863-6 6v18c0 3.3137 2.686 6 6 6h18c3.314 0 6-2.6863 6-6v-18c0-3.3137-2.686-6-6-6z"/><path d="m836 34h-18c-3.314 0-6 2.6863-6 6v18c0 3.3137 2.686 6 6 6h18c3.314 0 6-2.6863 6-6v-18c0-3.3137-2.686-6-6-6z"/><path d="m768-.00000024-18 .00000018c-3.314.00000003-6 2.68629006-6 6.00000006v18c0 3.3137 2.686 6 6 6h18c3.314 0 6-2.6863 6-6v-18c0-3.31371-2.686-6.00000028-6-6.00000024z"/><path d="m904 68h-18c-3.314 0-6 2.6863-6 6v18c0 3.3137 2.686 6 6 6h18c3.314 0 6-2.6863 6-6v-18c0-3.3137-2.686-6-6-6z"/><path d="m938 68h-18c-3.314 0-6 2.6863-6 6v18c0 3.3137 2.686 6 6 6h18c3.314 0 6-2.6863 6-6v-18c0-3.3137-2.686-6-6-6z"/><path d="m972 68h-18c-3.314 0-6 2.6863-6 6v18c0 3.3137 2.686 6 6 6h18c3.314 0 6-2.6863 6-6v-18c0-3.3137-2.686-6-6-6z"/><path d="m1006 68h-18c-3.314 0-6 2.6863-6 6v18c0 3.3137 2.686 6 6 6h18c3.31 0 6-2.6863 6-6v-18c0-3.3137-2.69-6-6-6z" opacity=".5"/><path d="m1040 68h-18c-3.31 0-6 2.6863-6 6v18c0 3.3137 2.69 6 6 6h18c3.31 0 6-2.6863 6-6v-18c0-3.3137-2.69-6-6-6z"/><path d="m1074 68h-18c-3.31 0-6 2.6863-6 6v18c0 3.3137 2.69 6 6 6h18c3.31 0 6-2.6863 6-6v-18c0-3.3137-2.69-6-6-6z"/><path d="m1108 68h-18c-3.31 0-6 2.6863-6 6v18c0 3.3137 2.69 6 6 6h18c3.31 0 6-2.6863 6-6v-18c0-3.3137-2.69-6-6-6z"/><path d="m1142 68h-18c-3.31 0-6 2.6863-6 6v18c0 3.3137 2.69 6 6 6h18c3.31 0 6-2.6863 6-6v-18c0-3.3137-2.69-6-6-6z"/><path d="m1176 68h-18c-3.31 0-6 2.6863-6 6v18c0 3.3137 2.69 6 6 6h18c3.31 0 6-2.6863 6-6v-18c0-3.3137-2.69-6-6-6z"/><path d="m1210 68h-18c-3.31 0-6 2.6863-6 6v18c0 3.3137 2.69 6 6 6h18c3.31 0 6-2.6863 6-6v-18c0-3.3137-2.69-6-6-6z"/><path d="m1244 68h-18c-3.31 0-6 2.6863-6 6v18c0 3.3137 2.69 6 6 6h18c3.31 0 6-2.6863 6-6v-18c0-3.3137-2.69-6-6-6z"/><path d="m1278 68h-18c-3.31 0-6 2.6863-6 6v18c0 3.3137 2.69 6 6 6h18c3.31 0 6-2.6863 6-6v-18c0-3.3137-2.69-6-6-6z"/><path d="m1312 68h-18c-3.31 0-6 2.6863-6 6v18c0 3.3137 2.69 6 6 6h18c3.31 0 6-2.6863 6-6v-18c0-3.3137-2.69-6-6-6z"/><path d="m1346 68h-18c-3.31 0-6 2.6863-6 6v18c0 3.3137 2.69 6 6 6h18c3.31 0 6-2.6863 6-6v-18c0-3.3137-2.69-6-6-6z"/><path d="m1380 68h-18c-3.31 0-6 2.6863-6 6v18c0 3.3137 2.69 6 6 6h18c3.31 0 6-2.6863 6-6v-18c0-3.3137-2.69-6-6-6z" opacity=".3"/><path d="m870 136h-18c-3.314 0-6 2.686-6 6v18c0 3.314 2.686 6 6 6h18c3.314 0 6-2.686 6-6v-18c0-3.314-2.686-6-6-6z"/><path d="m938 136h-18c-3.314 0-6 2.686-6 6v18c0 3.314 2.686 6 6 6h18c3.314 0 6-2.686 6-6v-18c0-3.314-2.686-6-6-6z" opacity=".27"/><path d="m972 136h-18c-3.314 0-6 2.686-6 6v18c0 3.314 2.686 6 6 6h18c3.314 0 6-2.686 6-6v-18c0-3.314-2.686-6-6-6z"/><path d="m1006 136h-18c-3.314 0-6 2.686-6 6v18c0 3.314 2.686 6 6 6h18c3.31 0 6-2.686 6-6v-18c0-3.314-2.69-6-6-6z" opacity=".9"/><path d="m1040 136h-18c-3.31 0-6 2.686-6 6v18c0 3.314 2.69 6 6 6h18c3.31 0 6-2.686 6-6v-18c0-3.314-2.69-6-6-6z" opacity=".6"/><path d="m1074 136h-18c-3.31 0-6 2.686-6 6v18c0 3.314 2.69 6 6 6h18c3.31 0 6-2.686 6-6v-18c0-3.314-2.69-6-6-6z"/><path d="m1142 136h-18c-3.31 0-6 2.686-6 6v18c0 3.314 2.69 6 6 6h18c3.31 0 6-2.686 6-6v-18c0-3.314-2.69-6-6-6z"/><path d="m1176 136h-18c-3.31 0-6 2.686-6 6v18c0 3.314 2.69 6 6 6h18c3.31 0 6-2.686 6-6v-18c0-3.314-2.69-6-6-6z"/><path d="m1210 136h-18c-3.31 0-6 2.686-6 6v18c0 3.314 2.69 6 6 6h18c3.31 0 6-2.686 6-6v-18c0-3.314-2.69-6-6-6z" opacity=".5"/><path d="m1244 136h-18c-3.31 0-6 2.686-6 6v18c0 3.314 2.69 6 6 6h18c3.31 0 6-2.686 6-6v-18c0-3.314-2.69-6-6-6z"/><path d="m1278 136h-18c-3.31 0-6 2.686-6 6v18c0 3.314 2.69 6 6 6h18c3.31 0 6-2.686 6-6v-18c0-3.314-2.69-6-6-6z"/><path d="m1312 136h-18c-3.31 0-6 2.686-6 6v18c0 3.314 2.69 6 6 6h18c3.31 0 6-2.686 6-6v-18c0-3.314-2.69-6-6-6z"/><path d="m1346 136h-18c-3.31 0-6 2.686-6 6v18c0 3.314 2.69 6 6 6h18c3.31 0 6-2.686 6-6v-18c0-3.314-2.69-6-6-6z"/><path d="m1380 136h-18c-3.31 0-6 2.686-6 6v18c0 3.314 2.69 6 6 6h18c3.31 0 6-2.686 6-6v-18c0-3.314-2.69-6-6-6z"/><path d="m904 374h-18c-3.314 0-6 2.686-6 6v18c0 3.314 2.686 6 6 6h18c3.314 0 6-2.686 6-6v-18c0-3.314-2.686-6-6-6z"/><path d="m938 374h-18c-3.314 0-6 2.686-6 6v18c0 3.314 2.686 6 6 6h18c3.314 0 6-2.686 6-6v-18c0-3.314-2.686-6-6-6z" opacity=".5"/><path d="m972 374h-18c-3.314 0-6 2.686-6 6v18c0 3.314 2.686 6 6 6h18c3.314 0 6-2.686 6-6v-18c0-3.314-2.686-6-6-6z"/><path d="m1006 374h-18c-3.314 0-6 2.686-6 6v18c0 3.314 2.686 6 6 6h18c3.31 0 6-2.686 6-6v-18c0-3.314-2.69-6-6-6z" opacity=".7"/><path d="m1040 374h-18c-3.31 0-6 2.686-6 6v18c0 3.314 2.69 6 6 6h18c3.31 0 6-2.686 6-6v-18c0-3.314-2.69-6-6-6z"/><path d="m1074 374h-18c-3.31 0-6 2.686-6 6v18c0 3.314 2.69 6 6 6h18c3.31 0 6-2.686 6-6v-18c0-3.314-2.69-6-6-6z" opacity=".4"/><path d="m1108 374h-18c-3.31 0-6 2.686-6 6v18c0 3.314 2.69 6 6 6h18c3.31 0 6-2.686 6-6v-18c0-3.314-2.69-6-6-6z" opacity=".5"/><path d="m1244 374h-18c-3.31 0-6 2.686-6 6v18c0 3.314 2.69 6 6 6h18c3.31 0 6-2.686 6-6v-18c0-3.314-2.69-6-6-6z"/><path d="m1278 374h-18c-3.31 0-6 2.686-6 6v18c0 3.314 2.69 6 6 6h18c3.31 0 6-2.686 6-6v-18c0-3.314-2.69-6-6-6z" opacity=".5"/><path d="m1312 374h-18c-3.31 0-6 2.686-6 6v18c0 3.314 2.69 6 6 6h18c3.31 0 6-2.686 6-6v-18c0-3.314-2.69-6-6-6z"/><path d="m1380 374h-18c-3.31 0-6 2.686-6 6v18c0 3.314 2.69 6 6 6h18c3.31 0 6-2.686 6-6v-18c0-3.314-2.69-6-6-6z"/><path d="m1414 374h-18c-3.31 0-6 2.686-6 6v18c0 3.314 2.69 6 6 6h18c3.31 0 6-2.686 6-6v-18c0-3.314-2.69-6-6-6z" opacity=".2"/><path d="m938 408h-18c-3.314 0-6 2.686-6 6v18c0 3.314 2.686 6 6 6h18c3.314 0 6-2.686 6-6v-18c0-3.314-2.686-6-6-6z" opacity=".5"/><path d="m1278 408h-18c-3.31 0-6 2.686-6 6v18c0 3.314 2.69 6 6 6h18c3.31 0 6-2.686 6-6v-18c0-3.314-2.69-6-6-6z"/><path d="m1346 408h-18c-3.31 0-6 2.686-6 6v18c0 3.314 2.69 6 6 6h18c3.31 0 6-2.686 6-6v-18c0-3.314-2.69-6-6-6z"/><path d="m1380 408h-18c-3.31 0-6 2.686-6 6v18c0 3.314 2.69 6 6 6h18c3.31 0 6-2.686 6-6v-18c0-3.314-2.69-6-6-6z"/><path d="m1414 408h-18c-3.31 0-6 2.686-6 6v18c0 3.314 2.69 6 6 6h18c3.31 0 6-2.686 6-6v-18c0-3.314-2.69-6-6-6z"/><path d="m870 238h-18c-3.314 0-6 2.686-6 6v18c0 3.314 2.686 6 6 6h18c3.314 0 6-2.686 6-6v-18c0-3.314-2.686-6-6-6z"/><path d="m904 238h-18c-3.314 0-6 2.686-6 6v18c0 3.314 2.686 6 6 6h18c3.314 0 6-2.686 6-6v-18c0-3.314-2.686-6-6-6z"/><path d="m972 238h-18c-3.314 0-6 2.686-6 6v18c0 3.314 2.686 6 6 6h18c3.314 0 6-2.686 6-6v-18c0-3.314-2.686-6-6-6z"/><path d="m1006 238h-18c-3.314 0-6 2.686-6 6v18c0 3.314 2.686 6 6 6h18c3.31 0 6-2.686 6-6v-18c0-3.314-2.69-6-6-6z" opacity=".2"/><path d="m1040 238h-18c-3.31 0-6 2.686-6 6v18c0 3.314 2.69 6 6 6h18c3.31 0 6-2.686 6-6v-18c0-3.314-2.69-6-6-6z"/><path d="m1074 238h-18c-3.31 0-6 2.686-6 6v18c0 3.314 2.69 6 6 6h18c3.31 0 6-2.686 6-6v-18c0-3.314-2.69-6-6-6z"/><path d="m1108 238h-18c-3.31 0-6 2.686-6 6v18c0 3.314 2.69 6 6 6h18c3.31 0 6-2.686 6-6v-18c0-3.314-2.69-6-6-6z"/><path d="m1142 238h-18c-3.31 0-6 2.686-6 6v18c0 3.314 2.69 6 6 6h18c3.31 0 6-2.686 6-6v-18c0-3.314-2.69-6-6-6z"/><path d="m1142 374h-18c-3.31 0-6 2.686-6 6v18c0 3.314 2.69 6 6 6h18c3.31 0 6-2.686 6-6v-18c0-3.314-2.69-6-6-6z"/><path d="m1176 374h-18c-3.31 0-6 2.686-6 6v18c0 3.314 2.69 6 6 6h18c3.31 0 6-2.686 6-6v-18c0-3.314-2.69-6-6-6z"/><path d="m1210 374h-18c-3.31 0-6 2.686-6 6v18c0 3.314 2.69 6 6 6h18c3.31 0 6-2.686 6-6v-18c0-3.314-2.69-6-6-6z"/><path d="m1244 238h-18c-3.31 0-6 2.686-6 6v18c0 3.314 2.69 6 6 6h18c3.31 0 6-2.686 6-6v-18c0-3.314-2.69-6-6-6z"/><path d="m1278 238h-18c-3.31 0-6 2.686-6 6v18c0 3.314 2.69 6 6 6h18c3.31 0 6-2.686 6-6v-18c0-3.314-2.69-6-6-6z"/><path d="m1312 238h-18c-3.31 0-6 2.686-6 6v18c0 3.314 2.69 6 6 6h18c3.31 0 6-2.686 6-6v-18c0-3.314-2.69-6-6-6z"/><path d="m1346 238h-18c-3.31 0-6 2.686-6 6v18c0 3.314 2.69 6 6 6h18c3.31 0 6-2.686 6-6v-18c0-3.314-2.69-6-6-6z"/><path d="m1380 238h-18c-3.31 0-6 2.686-6 6v18c0 3.314 2.69 6 6 6h18c3.31 0 6-2.686 6-6v-18c0-3.314-2.69-6-6-6z"/><path d="m870 272h-18c-3.314 0-6 2.686-6 6v18c0 3.314 2.686 6 6 6h18c3.314 0 6-2.686 6-6v-18c0-3.314-2.686-6-6-6z"/><path d="m904 272h-18c-3.314 0-6 2.686-6 6v18c0 3.314 2.686 6 6 6h18c3.314 0 6-2.686 6-6v-18c0-3.314-2.686-6-6-6z"/><path d="m938 272h-18c-3.314 0-6 2.686-6 6v18c0 3.314 2.686 6 6 6h18c3.314 0 6-2.686 6-6v-18c0-3.314-2.686-6-6-6z"/><path d="m972 272h-18c-3.314 0-6 2.686-6 6v18c0 3.314 2.686 6 6 6h18c3.314 0 6-2.686 6-6v-18c0-3.314-2.686-6-6-6z"/><path d="m1006 272h-18c-3.314 0-6 2.686-6 6v18c0 3.314 2.686 6 6 6h18c3.31 0 6-2.686 6-6v-18c0-3.314-2.69-6-6-6z"/><path d="m1040 272h-18c-3.31 0-6 2.686-6 6v18c0 3.314 2.69 6 6 6h18c3.31 0 6-2.686 6-6v-18c0-3.314-2.69-6-6-6z"/><path d="m1074 272h-18c-3.31 0-6 2.686-6 6v18c0 3.314 2.69 6 6 6h18c3.31 0 6-2.686 6-6v-18c0-3.314-2.69-6-6-6z" opacity=".3"/><path d="m1108 272h-18c-3.31 0-6 2.686-6 6v18c0 3.314 2.69 6 6 6h18c3.31 0 6-2.686 6-6v-18c0-3.314-2.69-6-6-6z" opacity=".3"/><path d="m1142 272h-18c-3.31 0-6 2.686-6 6v18c0 3.314 2.69 6 6 6h18c3.31 0 6-2.686 6-6v-18c0-3.314-2.69-6-6-6z"/><path d="m1142 408h-18c-3.31 0-6 2.686-6 6v18c0 3.314 2.69 6 6 6h18c3.31 0 6-2.686 6-6v-18c0-3.314-2.69-6-6-6z" opacity=".3"/><path d="m1210 408h-18c-3.31 0-6 2.686-6 6v18c0 3.314 2.69 6 6 6h18c3.31 0 6-2.686 6-6v-18c0-3.314-2.69-6-6-6z"/><path d="m1176 272h-18c-3.31 0-6 2.686-6 6v18c0 3.314 2.69 6 6 6h18c3.31 0 6-2.686 6-6v-18c0-3.314-2.69-6-6-6z"/><path d="m1210 272h-18c-3.31 0-6 2.686-6 6v18c0 3.314 2.69 6 6 6h18c3.31 0 6-2.686 6-6v-18c0-3.314-2.69-6-6-6z" opacity=".5"/><path d="m1244 272h-18c-3.31 0-6 2.686-6 6v18c0 3.314 2.69 6 6 6h18c3.31 0 6-2.686 6-6v-18c0-3.314-2.69-6-6-6z"/><path d="m1312 272h-18c-3.31 0-6 2.686-6 6v18c0 3.314 2.69 6 6 6h18c3.31 0 6-2.686 6-6v-18c0-3.314-2.69-6-6-6z"/><path d="m1380 272h-18c-3.31 0-6 2.686-6 6v18c0 3.314 2.69 6 6 6h18c3.31 0 6-2.686 6-6v-18c0-3.314-2.69-6-6-6z"/><path d="m1414 272h-18c-3.31 0-6 2.686-6 6v18c0 3.314 2.69 6 6 6h18c3.31 0 6-2.686 6-6v-18c0-3.314-2.69-6-6-6z"/><path d="m870 170h-18c-3.314 0-6 2.686-6 6v18c0 3.314 2.686 6 6 6h18c3.314 0 6-2.686 6-6v-18c0-3.314-2.686-6-6-6z"/><path d="m938 170h-18c-3.314 0-6 2.686-6 6v18c0 3.314 2.686 6 6 6h18c3.314 0 6-2.686 6-6v-18c0-3.314-2.686-6-6-6z"/><path d="m1040 170h-18c-3.31 0-6 2.686-6 6v18c0 3.314 2.69 6 6 6h18c3.31 0 6-2.686 6-6v-18c0-3.314-2.69-6-6-6z"/><path d="m1074 170h-18c-3.31 0-6 2.686-6 6v18c0 3.314 2.69 6 6 6h18c3.31 0 6-2.686 6-6v-18c0-3.314-2.69-6-6-6z"/><path d="m1108 170h-18c-3.31 0-6 2.686-6 6v18c0 3.314 2.69 6 6 6h18c3.31 0 6-2.686 6-6v-18c0-3.314-2.69-6-6-6z"/><path d="m1142 170h-18c-3.31 0-6 2.686-6 6v18c0 3.314 2.69 6 6 6h18c3.31 0 6-2.686 6-6v-18c0-3.314-2.69-6-6-6z" opacity=".6"/><path d="m1176 170h-18c-3.31 0-6 2.686-6 6v18c0 3.314 2.69 6 6 6h18c3.31 0 6-2.686 6-6v-18c0-3.314-2.69-6-6-6z" opacity=".3"/><path d="m1210 170h-18c-3.31 0-6 2.686-6 6v18c0 3.314 2.69 6 6 6h18c3.31 0 6-2.686 6-6v-18c0-3.314-2.69-6-6-6z" opacity=".3"/><path d="m1244 170h-18c-3.31 0-6 2.686-6 6v18c0 3.314 2.69 6 6 6h18c3.31 0 6-2.686 6-6v-18c0-3.314-2.69-6-6-6z"/><path d="m1312 170h-18c-3.31 0-6 2.686-6 6v18c0 3.314 2.69 6 6 6h18c3.31 0 6-2.686 6-6v-18c0-3.314-2.69-6-6-6z"/><path d="m1346 170h-18c-3.31 0-6 2.686-6 6v18c0 3.314 2.69 6 6 6h18c3.31 0 6-2.686 6-6v-18c0-3.314-2.69-6-6-6z"/><path d="m1380 170h-18c-3.31 0-6 2.686-6 6v18c0 3.314 2.69 6 6 6h18c3.31 0 6-2.686 6-6v-18c0-3.314-2.69-6-6-6z"/><path d="m1414 170h-18c-3.31 0-6 2.686-6 6v18c0 3.314 2.69 6 6 6h18c3.31 0 6-2.686 6-6v-18c0-3.314-2.69-6-6-6z" opacity=".7"/><path d="m870 204h-18c-3.314 0-6 2.686-6 6v18c0 3.314 2.686 6 6 6h18c3.314 0 6-2.686 6-6v-18c0-3.314-2.686-6-6-6z"/><path d="m938 204h-18c-3.314 0-6 2.686-6 6v18c0 3.314 2.686 6 6 6h18c3.314 0 6-2.686 6-6v-18c0-3.314-2.686-6-6-6z"/><path d="m972 204h-18c-3.314 0-6 2.686-6 6v18c0 3.314 2.686 6 6 6h18c3.314 0 6-2.686 6-6v-18c0-3.314-2.686-6-6-6z"/><path d="m1006 204h-18c-3.314 0-6 2.686-6 6v18c0 3.314 2.686 6 6 6h18c3.31 0 6-2.686 6-6v-18c0-3.314-2.69-6-6-6z"/><path d="m1074 204h-18c-3.31 0-6 2.686-6 6v18c0 3.314 2.69 6 6 6h18c3.31 0 6-2.686 6-6v-18c0-3.314-2.69-6-6-6z" opacity=".3"/><path d="m1108 204h-18c-3.31 0-6 2.686-6 6v18c0 3.314 2.69 6 6 6h18c3.31 0 6-2.686 6-6v-18c0-3.314-2.69-6-6-6z"/><path d="m1176 204h-18c-3.31 0-6 2.686-6 6v18c0 3.314 2.69 6 6 6h18c3.31 0 6-2.686 6-6v-18c0-3.314-2.69-6-6-6z"/><path d="m1210 204h-18c-3.31 0-6 2.686-6 6v18c0 3.314 2.69 6 6 6h18c3.31 0 6-2.686 6-6v-18c0-3.314-2.69-6-6-6z"/><path d="m1244 204h-18c-3.31 0-6 2.686-6 6v18c0 3.314 2.69 6 6 6h18c3.31 0 6-2.686 6-6v-18c0-3.314-2.69-6-6-6z"/><path d="m1312 204h-18c-3.31 0-6 2.686-6 6v18c0 3.314 2.69 6 6 6h18c3.31 0 6-2.686 6-6v-18c0-3.314-2.69-6-6-6z" opacity=".5"/><path d="m1346 204h-18c-3.31 0-6 2.686-6 6v18c0 3.314 2.69 6 6 6h18c3.31 0 6-2.686 6-6v-18c0-3.314-2.69-6-6-6z"/><path d="m1414 204h-18c-3.31 0-6 2.686-6 6v18c0 3.314 2.69 6 6 6h18c3.31 0 6-2.686 6-6v-18c0-3.314-2.69-6-6-6z"/><path d="m904 306h-18c-3.314 0-6 2.686-6 6v18c0 3.314 2.686 6 6 6h18c3.314 0 6-2.686 6-6v-18c0-3.314-2.686-6-6-6z" opacity=".3"/><path d="m938 306h-18c-3.314 0-6 2.686-6 6v18c0 3.314 2.686 6 6 6h18c3.314 0 6-2.686 6-6v-18c0-3.314-2.686-6-6-6z" opacity=".3"/><path d="m1006 306h-18c-3.314 0-6 2.686-6 6v18c0 3.314 2.686 6 6 6h18c3.31 0 6-2.686 6-6v-18c0-3.314-2.69-6-6-6z"/><path d="m1074 306h-18c-3.31 0-6 2.686-6 6v18c0 3.314 2.69 6 6 6h18c3.31 0 6-2.686 6-6v-18c0-3.314-2.69-6-6-6z"/><path d="m1108 306h-18c-3.31 0-6 2.686-6 6v18c0 3.314 2.69 6 6 6h18c3.31 0 6-2.686 6-6v-18c0-3.314-2.69-6-6-6z"/><path d="m1142 306h-18c-3.31 0-6 2.686-6 6v18c0 3.314 2.69 6 6 6h18c3.31 0 6-2.686 6-6v-18c0-3.314-2.69-6-6-6z"/><path d="m1142 442h-18c-3.31 0-6 2.686-6 6v18c0 3.314 2.69 6 6 6h18c3.31 0 6-2.686 6-6v-18c0-3.314-2.69-6-6-6z"/><path d="m1176 442h-18c-3.31 0-6 2.686-6 6v18c0 3.314 2.69 6 6 6h18c3.31 0 6-2.686 6-6v-18c0-3.314-2.69-6-6-6z"/><path d="m1210 442h-18c-3.31 0-6 2.686-6 6v18c0 3.314 2.69 6 6 6h18c3.31 0 6-2.686 6-6v-18c0-3.314-2.69-6-6-6z"/><path d="m1210 306h-18c-3.31 0-6 2.686-6 6v18c0 3.314 2.69 6 6 6h18c3.31 0 6-2.686 6-6v-18c0-3.314-2.69-6-6-6z" opacity=".5"/><path d="m1244 306h-18c-3.31 0-6 2.686-6 6v18c0 3.314 2.69 6 6 6h18c3.31 0 6-2.686 6-6v-18c0-3.314-2.69-6-6-6z"/><path d="m1278 306h-18c-3.31 0-6 2.686-6 6v18c0 3.314 2.69 6 6 6h18c3.31 0 6-2.686 6-6v-18c0-3.314-2.69-6-6-6z"/><path d="m1312 306h-18c-3.31 0-6 2.686-6 6v18c0 3.314 2.69 6 6 6h18c3.31 0 6-2.686 6-6v-18c0-3.314-2.69-6-6-6z" opacity=".5"/><path d="m1380 306h-18c-3.31 0-6 2.686-6 6v18c0 3.314 2.69 6 6 6h18c3.31 0 6-2.686 6-6v-18c0-3.314-2.69-6-6-6z" opacity=".2"/><path d="m1414 306h-18c-3.31 0-6 2.686-6 6v18c0 3.314 2.69 6 6 6h18c3.31 0 6-2.686 6-6v-18c0-3.314-2.69-6-6-6z"/><path d="m870 340h-18c-3.314 0-6 2.686-6 6v18c0 3.314 2.686 6 6 6h18c3.314 0 6-2.686 6-6v-18c0-3.314-2.686-6-6-6z"/><path d="m904 340h-18c-3.314 0-6 2.686-6 6v18c0 3.314 2.686 6 6 6h18c3.314 0 6-2.686 6-6v-18c0-3.314-2.686-6-6-6z" opacity=".5"/><path d="m938 340h-18c-3.314 0-6 2.686-6 6v18c0 3.314 2.686 6 6 6h18c3.314 0 6-2.686 6-6v-18c0-3.314-2.686-6-6-6z"/><path d="m972 340h-18c-3.314 0-6 2.686-6 6v18c0 3.314 2.686 6 6 6h18c3.314 0 6-2.686 6-6v-18c0-3.314-2.686-6-6-6z" opacity=".3"/><path d="m1006 340h-18c-3.314 0-6 2.686-6 6v18c0 3.314 2.686 6 6 6h18c3.31 0 6-2.686 6-6v-18c0-3.314-2.69-6-6-6z"/><path d="m1074 340h-18c-3.31 0-6 2.686-6 6v18c0 3.314 2.69 6 6 6h18c3.31 0 6-2.686 6-6v-18c0-3.314-2.69-6-6-6z" opacity=".5"/><path d="m1142 340h-18c-3.31 0-6 2.686-6 6v18c0 3.314 2.69 6 6 6h18c3.31 0 6-2.686 6-6v-18c0-3.314-2.69-6-6-6z"/><path d="m1176 476h-18c-3.31 0-6 2.686-6 6v18c0 3.314 2.69 6 6 6h18c3.31 0 6-2.686 6-6v-18c0-3.314-2.69-6-6-6z"/><path d="m1210 476h-18c-3.31 0-6 2.686-6 6v18c0 3.314 2.69 6 6 6h18c3.31 0 6-2.686 6-6v-18c0-3.314-2.69-6-6-6z"/><path d="m1176 340h-18c-3.31 0-6 2.686-6 6v18c0 3.314 2.69 6 6 6h18c3.31 0 6-2.686 6-6v-18c0-3.314-2.69-6-6-6z"/><path d="m1210 340h-18c-3.31 0-6 2.686-6 6v18c0 3.314 2.69 6 6 6h18c3.31 0 6-2.686 6-6v-18c0-3.314-2.69-6-6-6z"/><path d="m1278 340h-18c-3.31 0-6 2.686-6 6v18c0 3.314 2.69 6 6 6h18c3.31 0 6-2.686 6-6v-18c0-3.314-2.69-6-6-6z"/><path d="m1312 340h-18c-3.31 0-6 2.686-6 6v18c0 3.314 2.69 6 6 6h18c3.31 0 6-2.686 6-6v-18c0-3.314-2.69-6-6-6z"/><path d="m1346 340h-18c-3.31 0-6 2.686-6 6v18c0 3.314 2.69 6 6 6h18c3.31 0 6-2.686 6-6v-18c0-3.314-2.69-6-6-6z"/><path d="m1380 340h-18c-3.31 0-6 2.686-6 6v18c0 3.314 2.69 6 6 6h18c3.31 0 6-2.686 6-6v-18c0-3.314-2.69-6-6-6z"/><path d="m1414 340h-18c-3.31 0-6 2.686-6 6v18c0 3.314 2.69 6 6 6h18c3.31 0 6-2.686 6-6v-18c0-3.314-2.69-6-6-6z"/><path d="m870 102h-18c-3.314 0-6 2.686-6 6v18c0 3.314 2.686 6 6 6h18c3.314 0 6-2.686 6-6v-18c0-3.314-2.686-6-6-6z" opacity=".4"/><path d="m904 102h-18c-3.314 0-6 2.686-6 6v18c0 3.314 2.686 6 6 6h18c3.314 0 6-2.686 6-6v-18c0-3.314-2.686-6-6-6z"/><path d="m938 102h-18c-3.314 0-6 2.686-6 6v18c0 3.314 2.686 6 6 6h18c3.314 0 6-2.686 6-6v-18c0-3.314-2.686-6-6-6z"/><path d="m972 102h-18c-3.314 0-6 2.686-6 6v18c0 3.314 2.686 6 6 6h18c3.314 0 6-2.686 6-6v-18c0-3.314-2.686-6-6-6z"/><path d="m1006 102h-18c-3.314 0-6 2.686-6 6v18c0 3.314 2.686 6 6 6h18c3.31 0 6-2.686 6-6v-18c0-3.314-2.69-6-6-6z"/><path d="m1040 102h-18c-3.31 0-6 2.686-6 6v18c0 3.314 2.69 6 6 6h18c3.31 0 6-2.686 6-6v-18c0-3.314-2.69-6-6-6z"/><path d="m1074 102h-18c-3.31 0-6 2.686-6 6v18c0 3.314 2.69 6 6 6h18c3.31 0 6-2.686 6-6v-18c0-3.314-2.69-6-6-6z"/><path d="m1108 102h-18c-3.31 0-6 2.686-6 6v18c0 3.314 2.69 6 6 6h18c3.31 0 6-2.686 6-6v-18c0-3.314-2.69-6-6-6z" opacity=".3"/><path d="m1142 102h-18c-3.31 0-6 2.686-6 6v18c0 3.314 2.69 6 6 6h18c3.31 0 6-2.686 6-6v-18c0-3.314-2.69-6-6-6z"/><path d="m1176 102h-18c-3.31 0-6 2.686-6 6v18c0 3.314 2.69 6 6 6h18c3.31 0 6-2.686 6-6v-18c0-3.314-2.69-6-6-6z"/><path d="m1210 102h-18c-3.31 0-6 2.686-6 6v18c0 3.314 2.69 6 6 6h18c3.31 0 6-2.686 6-6v-18c0-3.314-2.69-6-6-6z"/><path d="m1244 102h-18c-3.31 0-6 2.686-6 6v18c0 3.314 2.69 6 6 6h18c3.31 0 6-2.686 6-6v-18c0-3.314-2.69-6-6-6z"/><path d="m1278 102h-18c-3.31 0-6 2.686-6 6v18c0 3.314 2.69 6 6 6h18c3.31 0 6-2.686 6-6v-18c0-3.314-2.69-6-6-6z" opacity=".3"/><path d="m1346 102h-18c-3.31 0-6 2.686-6 6v18c0 3.314 2.69 6 6 6h18c3.31 0 6-2.686 6-6v-18c0-3.314-2.69-6-6-6z" opacity=".3"/><path d="m1380 102h-18c-3.31 0-6 2.686-6 6v18c0 3.314 2.69 6 6 6h18c3.31 0 6-2.686 6-6v-18c0-3.314-2.69-6-6-6z"/><path d="m1414 102h-18c-3.31 0-6 2.686-6 6v18c0 3.314 2.69 6 6 6h18c3.31 0 6-2.686 6-6v-18c0-3.314-2.69-6-6-6z" opacity=".5"/><path d="m870 34h-18c-3.314 0-6 2.6863-6 6v18c0 3.3137 2.686 6 6 6h18c3.314 0 6-2.6863 6-6v-18c0-3.3137-2.686-6-6-6z"/><path d="m904 34h-18c-3.314 0-6 2.6863-6 6v18c0 3.3137 2.686 6 6 6h18c3.314 0 6-2.6863 6-6v-18c0-3.3137-2.686-6-6-6z" opacity=".5"/><path d="m972 34h-18c-3.314 0-6 2.6863-6 6v18c0 3.3137 2.686 6 6 6h18c3.314 0 6-2.6863 6-6v-18c0-3.3137-2.686-6-6-6z"/><path d="m1006 34h-18c-3.314 0-6 2.6863-6 6v18c0 3.3137 2.686 6 6 6h18c3.31 0 6-2.6863 6-6v-18c0-3.3137-2.69-6-6-6z"/><path d="m1040 34h-18c-3.31 0-6 2.6863-6 6v18c0 3.3137 2.69 6 6 6h18c3.31 0 6-2.6863 6-6v-18c0-3.3137-2.69-6-6-6z"/><path d="m1108 34h-18c-3.31 0-6 2.6863-6 6v18c0 3.3137 2.69 6 6 6h18c3.31 0 6-2.6863 6-6v-18c0-3.3137-2.69-6-6-6z"/><path d="m1176 34h-18c-3.31 0-6 2.6863-6 6v18c0 3.3137 2.69 6 6 6h18c3.31 0 6-2.6863 6-6v-18c0-3.3137-2.69-6-6-6z"/><path d="m1210 34h-18c-3.31 0-6 2.6863-6 6v18c0 3.3137 2.69 6 6 6h18c3.31 0 6-2.6863 6-6v-18c0-3.3137-2.69-6-6-6z"/><path d="m1244 34h-18c-3.31 0-6 2.6863-6 6v18c0 3.3137 2.69 6 6 6h18c3.31 0 6-2.6863 6-6v-18c0-3.3137-2.69-6-6-6z"/><path d="m1278 34h-18c-3.31 0-6 2.6863-6 6v18c0 3.3137 2.69 6 6 6h18c3.31 0 6-2.6863 6-6v-18c0-3.3137-2.69-6-6-6z"/><path d="m1380 34h-18c-3.31 0-6 2.6863-6 6v18c0 3.3137 2.69 6 6 6h18c3.31 0 6-2.6863 6-6v-18c0-3.3137-2.69-6-6-6z"/><path d="m870-.00000024-18 .00000018c-3.314.00000003-6 2.68629006-6 6.00000006v18c0 3.3137 2.686 6 6 6h18c3.314 0 6-2.6863 6-6v-18c0-3.31371-2.686-6.00000028-6-6.00000024z"/><path d="m938-.00000024-18 .00000018c-3.314.00000003-6 2.68629006-6 6.00000006v18c0 3.3137 2.686 6 6 6h18c3.314 0 6-2.6863 6-6v-18c0-3.31371-2.686-6.00000028-6-6.00000024z"/><path d="m972-.00000024-18 .00000018c-3.314.00000003-6 2.68629006-6 6.00000006v18c0 3.3137 2.686 6 6 6h18c3.314 0 6-2.6863 6-6v-18c0-3.31371-2.686-6.00000028-6-6.00000024z"/><path d="m1006-.00000024-18 .00000018c-3.314.00000003-6 2.68629006-6 6.00000006v18c0 3.3137 2.686 6 6 6h18c3.31 0 6-2.6863 6-6v-18c0-3.31371-2.69-6.00000028-6-6.00000024z"/><path d="m1278-.00000024-18 .00000018c-3.31.00000003-6 2.68629006-6 6.00000006v18c0 3.3137 2.69 6 6 6h18c3.31 0 6-2.6863 6-6v-18c0-3.31371-2.69-6.00000028-6-6.00000024z"/><path d="m1312-.00000024-18 .00000018c-3.31.00000003-6 2.68629006-6 6.00000006v18c0 3.3137 2.69 6 6 6h18c3.31 0 6-2.6863 6-6v-18c0-3.31371-2.69-6.00000028-6-6.00000024z"/><path d="m1380-.00000024-18 .00000018c-3.31.00000003-6 2.68629006-6 6.00000006v18c0 3.3137 2.69 6 6 6h18c3.31 0 6-2.6863 6-6v-18c0-3.31371-2.69-6.00000028-6-6.00000024z"/><path d="m1414-.00000024-18 .00000018c-3.31.00000003-6 2.68629006-6 6.00000006v18c0 3.3137 2.69 6 6 6h18c3.31 0 6-2.6863 6-6v-18c0-3.31371-2.69-6.00000028-6-6.00000024z"/><path d="m734 102h-18c-3.314 0-6 2.686-6 6v18c0 3.314 2.686 6 6 6h18c3.314 0 6-2.686 6-6v-18c0-3.314-2.686-6-6-6z"/><path d="m734-.00000024-18 .00000018c-3.314.00000003-6 2.68629006-6 6.00000006v18c0 3.3137 2.686 6 6 6h18c3.314 0 6-2.6863 6-6v-18c0-3.31371-2.686-6.00000028-6-6.00000024z"/><path d="m734 34h-18c-3.314 0-6 2.6863-6 6v18c0 3.3137 2.686 6 6 6h18c3.314 0 6-2.6863 6-6v-18c0-3.3137-2.686-6-6-6z"/><path d="m20.0001 811h-18.00004c-3.31371 0-6-2.686-6-6v-18c0-3.314 2.68629-6 6-6h18.00004c3.3137 0 6 2.686 6 6v18c0 3.314-2.6863 6-6 6z"/><path d="m54.0001 811h-18c-3.3137 0-6-2.686-6-6v-18c0-3.314 2.6863-6 6-6h18c3.3137 0 6 2.686 6 6v18c0 3.314-2.6863 6-6 6z"/><path d="m88.0001 811h-18c-3.3137 0-6-2.686-6-6v-18c0-3.314 2.6863-6 6-6h18c3.3137 0 6 2.686 6 6v18c0 3.314-2.6863 6-6 6z"/><path d="m122 811h-18c-3.314 0-5.9999-2.686-5.9999-6v-18c0-3.314 2.6859-6 5.9999-6h18c3.314 0 6 2.686 6 6v18c0 3.314-2.686 6-6 6z" opacity=".5"/><path d="m156 811h-18c-3.314 0-6-2.686-6-6v-18c0-3.314 2.686-6 6-6h18c3.314 0 6 2.686 6 6v18c0 3.314-2.686 6-6 6z"/><path d="m190 811h-18c-3.314 0-6-2.686-6-6v-18c0-3.314 2.686-6 6-6h18c3.314 0 6 2.686 6 6v18c0 3.314-2.686 6-6 6z"/><path d="m224 811h-18c-3.314 0-6-2.686-6-6v-18c0-3.314 2.686-6 6-6h18c3.314 0 6 2.686 6 6v18c0 3.314-2.686 6-6 6z"/><path d="m258 811h-18c-3.314 0-6-2.686-6-6v-18c0-3.314 2.686-6 6-6h18c3.314 0 6 2.686 6 6v18c0 3.314-2.686 6-6 6z"/><path d="m292 811h-18c-3.314 0-6-2.686-6-6v-18c0-3.314 2.686-6 6-6h18c3.314 0 6 2.686 6 6v18c0 3.314-2.686 6-6 6z"/><path d="m326 811h-18c-3.314 0-6-2.686-6-6v-18c0-3.314 2.686-6 6-6h18c3.314 0 6 2.686 6 6v18c0 3.314-2.686 6-6 6z"/><path d="m360 811h-18c-3.314 0-6-2.686-6-6v-18c0-3.314 2.686-6 6-6h18c3.314 0 6 2.686 6 6v18c0 3.314-2.686 6-6 6z"/><path d="m394 811h-18c-3.314 0-6-2.686-6-6v-18c0-3.314 2.686-6 6-6h18c3.314 0 6 2.686 6 6v18c0 3.314-2.686 6-6 6z"/><path d="m428 811h-18c-3.314 0-6-2.686-6-6v-18c0-3.314 2.686-6 6-6h18c3.314 0 6 2.686 6 6v18c0 3.314-2.686 6-6 6z"/><path d="m462 811h-18c-3.314 0-6-2.686-6-6v-18c0-3.314 2.686-6 6-6h18c3.314 0 6 2.686 6 6v18c0 3.314-2.686 6-6 6z"/><path d="m496 811h-18c-3.314 0-6-2.686-6-6v-18c0-3.314 2.686-6 6-6h18c3.314 0 6 2.686 6 6v18c0 3.314-2.686 6-6 6z" opacity=".3"/><path d="m564 811h-18c-3.314 0-6-2.686-6-6v-18c0-3.314 2.686-6 6-6h18c3.314 0 6 2.686 6 6v18c0 3.314-2.686 6-6 6z"/><path d="m632 811h-18c-3.314 0-6-2.686-6-6v-18c0-3.314 2.686-6 6-6h18c3.314 0 6 2.686 6 6v18c0 3.314-2.686 6-6 6z"/><path d="m700 811h-18c-3.314 0-6-2.686-6-6v-18c0-3.314 2.686-6 6-6h18c3.314 0 6 2.686 6 6v18c0 3.314-2.686 6-6 6z"/><path d="m54.0001 743h-18c-3.3137 0-6-2.686-6-6v-18c0-3.314 2.6863-6 6-6h18c3.3137 0 6 2.686 6 6v18c0 3.314-2.6863 6-6 6z" opacity=".27"/><path d="m88.0001 743h-18c-3.3137 0-6-2.686-6-6v-18c0-3.314 2.6863-6 6-6h18c3.3137 0 6 2.686 6 6v18c0 3.314-2.6863 6-6 6z"/><path d="m122 743h-18c-3.314 0-5.9999-2.686-5.9999-6v-18c0-3.314 2.6859-6 5.9999-6h18c3.314 0 6 2.686 6 6v18c0 3.314-2.686 6-6 6z" opacity=".9"/><path d="m156 743h-18c-3.314 0-6-2.686-6-6v-18c0-3.314 2.686-6 6-6h18c3.314 0 6 2.686 6 6v18c0 3.314-2.686 6-6 6z" opacity=".6"/><path d="m190 743h-18c-3.314 0-6-2.686-6-6v-18c0-3.314 2.686-6 6-6h18c3.314 0 6 2.686 6 6v18c0 3.314-2.686 6-6 6z"/><path d="m258 743h-18c-3.314 0-6-2.686-6-6v-18c0-3.314 2.686-6 6-6h18c3.314 0 6 2.686 6 6v18c0 3.314-2.686 6-6 6z"/><path d="m292 743h-18c-3.314 0-6-2.686-6-6v-18c0-3.314 2.686-6 6-6h18c3.314 0 6 2.686 6 6v18c0 3.314-2.686 6-6 6z"/><path d="m326 743h-18c-3.314 0-6-2.686-6-6v-18c0-3.314 2.686-6 6-6h18c3.314 0 6 2.686 6 6v18c0 3.314-2.686 6-6 6z" opacity=".5"/><path d="m360 743h-18c-3.314 0-6-2.686-6-6v-18c0-3.314 2.686-6 6-6h18c3.314 0 6 2.686 6 6v18c0 3.314-2.686 6-6 6z"/><path d="m394 743h-18c-3.314 0-6-2.686-6-6v-18c0-3.314 2.686-6 6-6h18c3.314 0 6 2.686 6 6v18c0 3.314-2.686 6-6 6z"/><path d="m428 743h-18c-3.314 0-6-2.686-6-6v-18c0-3.314 2.686-6 6-6h18c3.314 0 6 2.686 6 6v18c0 3.314-2.686 6-6 6z"/><path d="m462 743h-18c-3.314 0-6-2.686-6-6v-18c0-3.314 2.686-6 6-6h18c3.314 0 6 2.686 6 6v18c0 3.314-2.686 6-6 6z"/><path d="m496 743h-18c-3.314 0-6-2.686-6-6v-18c0-3.314 2.686-6 6-6h18c3.314 0 6 2.686 6 6v18c0 3.314-2.686 6-6 6z"/><path d="m564 743h-18c-3.314 0-6-2.686-6-6v-18c0-3.314 2.686-6 6-6h18c3.314 0 6 2.686 6 6v18c0 3.314-2.686 6-6 6z"/><path d="m632 743h-18c-3.314 0-6-2.686-6-6v-18c0-3.314 2.686-6 6-6h18c3.314 0 6 2.686 6 6v18c0 3.314-2.686 6-6 6z"/><path d="m666 743h-18c-3.314 0-6-2.686-6-6v-18c0-3.314 2.686-6 6-6h18c3.314 0 6 2.686 6 6v18c0 3.314-2.686 6-6 6z"/><path d="m700 743h-18c-3.314 0-6-2.686-6-6v-18c0-3.314 2.686-6 6-6h18c3.314 0 6 2.686 6 6v18c0 3.314-2.686 6-6 6z"/><path d="m20.0001 505h-18.00004c-3.31371 0-6-2.686-6-6v-18c0-3.314 2.68629-6 6-6h18.00004c3.3137 0 6 2.686 6 6v18c0 3.314-2.6863 6-6 6z"/><path d="m54.0001 505h-18c-3.3137 0-6-2.686-6-6v-18c0-3.314 2.6863-6 6-6h18c3.3137 0 6 2.686 6 6v18c0 3.314-2.6863 6-6 6z" opacity=".5"/><path d="m88.0001 505h-18c-3.3137 0-6-2.686-6-6v-18c0-3.314 2.6863-6 6-6h18c3.3137 0 6 2.686 6 6v18c0 3.314-2.6863 6-6 6z"/><path d="m122 505h-18c-3.314 0-5.9999-2.686-5.9999-6v-18c0-3.314 2.6859-6 5.9999-6h18c3.314 0 6 2.686 6 6v18c0 3.314-2.686 6-6 6z" opacity=".7"/><path d="m156 505h-18c-3.314 0-6-2.686-6-6v-18c0-3.314 2.686-6 6-6h18c3.314 0 6 2.686 6 6v18c0 3.314-2.686 6-6 6z"/><path d="m190 505h-18c-3.314 0-6-2.686-6-6v-18c0-3.314 2.686-6 6-6h18c3.314 0 6 2.686 6 6v18c0 3.314-2.686 6-6 6z" opacity=".4"/><path d="m224 505h-18c-3.314 0-6-2.686-6-6v-18c0-3.314 2.686-6 6-6h18c3.314 0 6 2.686 6 6v18c0 3.314-2.686 6-6 6z" opacity=".5"/><path d="m360 505h-18c-3.314 0-6-2.686-6-6v-18c0-3.314 2.686-6 6-6h18c3.314 0 6 2.686 6 6v18c0 3.314-2.686 6-6 6z"/><path d="m394 505h-18c-3.314 0-6-2.686-6-6v-18c0-3.314 2.686-6 6-6h18c3.314 0 6 2.686 6 6v18c0 3.314-2.686 6-6 6z" opacity=".5"/><path d="m428 505h-18c-3.314 0-6-2.686-6-6v-18c0-3.314 2.686-6 6-6h18c3.314 0 6 2.686 6 6v18c0 3.314-2.686 6-6 6z"/><path d="m496 505h-18c-3.314 0-6-2.686-6-6v-18c0-3.314 2.686-6 6-6h18c3.314 0 6 2.686 6 6v18c0 3.314-2.686 6-6 6z"/><path d="m530 505h-18c-3.314 0-6-2.686-6-6v-18c0-3.314 2.686-6 6-6h18c3.314 0 6 2.686 6 6v18c0 3.314-2.686 6-6 6z" opacity=".2"/><path d="m564 505h-18c-3.314 0-6-2.686-6-6v-18c0-3.314 2.686-6 6-6h18c3.314 0 6 2.686 6 6v18c0 3.314-2.686 6-6 6z"/><path d="m632 505h-18c-3.314 0-6-2.686-6-6v-18c0-3.314 2.686-6 6-6h18c3.314 0 6 2.686 6 6v18c0 3.314-2.686 6-6 6z"/><path d="m700 505h-18c-3.314 0-6-2.686-6-6v-18c0-3.314 2.686-6 6-6h18c3.314 0 6 2.686 6 6v18c0 3.314-2.686 6-6 6z"/><path d="m54.0001 471h-18c-3.3137 0-6-2.686-6-6v-18c0-3.314 2.6863-6 6-6h18c3.3137 0 6 2.686 6 6v18c0 3.314-2.6863 6-6 6z" opacity=".5"/><path d="m20.0001 471h-18.00004c-3.31371 0-6-2.686-6-6v-18c0-3.314 2.68629-6 6-6h18.00004c3.3137 0 6 2.686 6 6v18c0 3.314-2.6863 6-6 6z"/><path d="m88.0001 471h-18c-3.3137 0-6-2.686-6-6v-18c0-3.314 2.6863-6 6-6h18c3.3137 0 6 2.686 6 6v18c0 3.314-2.6863 6-6 6z" opacity=".5"/><path d="m122 471h-18c-3.314 0-5.9999-2.686-5.9999-6v-18c0-3.314 2.6859-6 5.9999-6h18c3.314 0 6 2.686 6 6v18c0 3.314-2.686 6-6 6z"/><path d="m156 471h-18c-3.314 0-6-2.686-6-6v-18c0-3.314 2.686-6 6-6h18c3.314 0 6 2.686 6 6v18c0 3.314-2.686 6-6 6z" opacity=".5"/><path d="m190 471h-18c-3.314 0-6-2.686-6-6v-18c0-3.314 2.686-6 6-6h18c3.314 0 6 2.686 6 6v18c0 3.314-2.686 6-6 6z" opacity=".5"/><path d="m224 471h-18c-3.314 0-6-2.686-6-6v-18c0-3.314 2.686-6 6-6h18c3.314 0 6 2.686 6 6v18c0 3.314-2.686 6-6 6z" opacity=".5"/><path d="m258 471h-18c-3.314 0-6-2.686-6-6v-18c0-3.314 2.686-6 6-6h18c3.314 0 6 2.686 6 6v18c0 3.314-2.686 6-6 6z"/><path d="m292 471h-18c-3.314 0-6-2.686-6-6v-18c0-3.314 2.686-6 6-6h18c3.314 0 6 2.686 6 6v18c0 3.314-2.686 6-6 6z" opacity=".5"/><path d="m394 471h-18c-3.314 0-6-2.686-6-6v-18c0-3.314 2.686-6 6-6h18c3.314 0 6 2.686 6 6v18c0 3.314-2.686 6-6 6z"/><path d="m462 471h-18c-3.314 0-6-2.686-6-6v-18c0-3.314 2.686-6 6-6h18c3.314 0 6 2.686 6 6v18c0 3.314-2.686 6-6 6z"/><path d="m496 471h-18c-3.314 0-6-2.686-6-6v-18c0-3.314 2.686-6 6-6h18c3.314 0 6 2.686 6 6v18c0 3.314-2.686 6-6 6z"/><path d="m530 471h-18c-3.314 0-6-2.686-6-6v-18c0-3.314 2.686-6 6-6h18c3.314 0 6 2.686 6 6v18c0 3.314-2.686 6-6 6z"/><path d="m666 471h-18c-3.314 0-6-2.686-6-6v-18c0-3.314 2.686-6 6-6h18c3.314 0 6 2.686 6 6v18c0 3.314-2.686 6-6 6z"/><path d="m20.0001 641h-18.00004c-3.31371 0-6-2.686-6-6v-18c0-3.314 2.68629-6 6-6h18.00004c3.3137 0 6 2.686 6 6v18c0 3.314-2.6863 6-6 6z"/><path d="m88.0001 641h-18c-3.3137 0-6-2.686-6-6v-18c0-3.314 2.6863-6 6-6h18c3.3137 0 6 2.686 6 6v18c0 3.314-2.6863 6-6 6z"/><path d="m122 641h-18c-3.314 0-5.9999-2.686-5.9999-6v-18c0-3.314 2.6859-6 5.9999-6h18c3.314 0 6 2.686 6 6v18c0 3.314-2.686 6-6 6z" opacity=".2"/><path d="m156 641h-18c-3.314 0-6-2.686-6-6v-18c0-3.314 2.686-6 6-6h18c3.314 0 6 2.686 6 6v18c0 3.314-2.686 6-6 6z"/><path d="m190 641h-18c-3.314 0-6-2.686-6-6v-18c0-3.314 2.686-6 6-6h18c3.314 0 6 2.686 6 6v18c0 3.314-2.686 6-6 6z"/><path d="m224 641h-18c-3.314 0-6-2.686-6-6v-18c0-3.314 2.686-6 6-6h18c3.314 0 6 2.686 6 6v18c0 3.314-2.686 6-6 6z"/><path d="m258 641h-18c-3.314 0-6-2.686-6-6v-18c0-3.314 2.686-6 6-6h18c3.314 0 6 2.686 6 6v18c0 3.314-2.686 6-6 6z"/><path d="m360 641h-18c-3.314 0-6-2.686-6-6v-18c0-3.314 2.686-6 6-6h18c3.314 0 6 2.686 6 6v18c0 3.314-2.686 6-6 6z"/><path d="m394 641h-18c-3.314 0-6-2.686-6-6v-18c0-3.314 2.686-6 6-6h18c3.314 0 6 2.686 6 6v18c0 3.314-2.686 6-6 6z"/><path d="m428 641h-18c-3.314 0-6-2.686-6-6v-18c0-3.314 2.686-6 6-6h18c3.314 0 6 2.686 6 6v18c0 3.314-2.686 6-6 6z"/><path d="m462 641h-18c-3.314 0-6-2.686-6-6v-18c0-3.314 2.686-6 6-6h18c3.314 0 6 2.686 6 6v18c0 3.314-2.686 6-6 6z"/><path d="m496 641h-18c-3.314 0-6-2.686-6-6v-18c0-3.314 2.686-6 6-6h18c3.314 0 6 2.686 6 6v18c0 3.314-2.686 6-6 6z"/><path d="m598 641h-18c-3.314 0-6-2.686-6-6v-18c0-3.314 2.686-6 6-6h18c3.314 0 6 2.686 6 6v18c0 3.314-2.686 6-6 6z"/><path d="m632 641h-18c-3.314 0-6-2.686-6-6v-18c0-3.314 2.686-6 6-6h18c3.314 0 6 2.686 6 6v18c0 3.314-2.686 6-6 6z" opacity=".3"/><path d="m666 641h-18c-3.314 0-6-2.686-6-6v-18c0-3.314 2.686-6 6-6h18c3.314 0 6 2.686 6 6v18c0 3.314-2.686 6-6 6z"/><path d="m700 641h-18c-3.314 0-6-2.686-6-6v-18c0-3.314 2.686-6 6-6h18c3.314 0 6 2.686 6 6v18c0 3.314-2.686 6-6 6z"/><path d="m20.0001 607h-18.00004c-3.31371 0-6-2.686-6-6v-18c0-3.314 2.68629-6 6-6h18.00004c3.3137 0 6 2.686 6 6v18c0 3.314-2.6863 6-6 6z"/><path d="m54.0001 607h-18c-3.3137 0-6-2.686-6-6v-18c0-3.314 2.6863-6 6-6h18c3.3137 0 6 2.686 6 6v18c0 3.314-2.6863 6-6 6z"/><path d="m88.0001 607h-18c-3.3137 0-6-2.686-6-6v-18c0-3.314 2.6863-6 6-6h18c3.3137 0 6 2.686 6 6v18c0 3.314-2.6863 6-6 6z"/><path d="m122 607h-18c-3.314 0-5.9999-2.686-5.9999-6v-18c0-3.314 2.6859-6 5.9999-6h18c3.314 0 6 2.686 6 6v18c0 3.314-2.686 6-6 6z"/><path d="m156 607h-18c-3.314 0-6-2.686-6-6v-18c0-3.314 2.686-6 6-6h18c3.314 0 6 2.686 6 6v18c0 3.314-2.686 6-6 6z"/><path d="m190 607h-18c-3.314 0-6-2.686-6-6v-18c0-3.314 2.686-6 6-6h18c3.314 0 6 2.686 6 6v18c0 3.314-2.686 6-6 6z" opacity=".3"/><path d="m224 607h-18c-3.314 0-6-2.686-6-6v-18c0-3.314 2.686-6 6-6h18c3.314 0 6 2.686 6 6v18c0 3.314-2.686 6-6 6z" opacity=".3"/><path d="m258 607h-18c-3.314 0-6-2.686-6-6v-18c0-3.314 2.686-6 6-6h18c3.314 0 6 2.686 6 6v18c0 3.314-2.686 6-6 6z"/><path d="m292 607h-18c-3.314 0-6-2.686-6-6v-18c0-3.314 2.686-6 6-6h18c3.314 0 6 2.686 6 6v18c0 3.314-2.686 6-6 6z"/><path d="m326 607h-18c-3.314 0-6-2.686-6-6v-18c0-3.314 2.686-6 6-6h18c3.314 0 6 2.686 6 6v18c0 3.314-2.686 6-6 6z" opacity=".5"/><path d="m360 607h-18c-3.314 0-6-2.686-6-6v-18c0-3.314 2.686-6 6-6h18c3.314 0 6 2.686 6 6v18c0 3.314-2.686 6-6 6z"/><path d="m428 607h-18c-3.314 0-6-2.686-6-6v-18c0-3.314 2.686-6 6-6h18c3.314 0 6 2.686 6 6v18c0 3.314-2.686 6-6 6z"/><path d="m496 607h-18c-3.314 0-6-2.686-6-6v-18c0-3.314 2.686-6 6-6h18c3.314 0 6 2.686 6 6v18c0 3.314-2.686 6-6 6z"/><path d="m530 607h-18c-3.314 0-6-2.686-6-6v-18c0-3.314 2.686-6 6-6h18c3.314 0 6 2.686 6 6v18c0 3.314-2.686 6-6 6z"/><path d="m564 607h-18c-3.314 0-6-2.686-6-6v-18c0-3.314 2.686-6 6-6h18c3.314 0 6 2.686 6 6v18c0 3.314-2.686 6-6 6z"/><path d="m598 607h-18c-3.314 0-6-2.686-6-6v-18c0-3.314 2.686-6 6-6h18c3.314 0 6 2.686 6 6v18c0 3.314-2.686 6-6 6z"/><path d="m632 607h-18c-3.314 0-6-2.686-6-6v-18c0-3.314 2.686-6 6-6h18c3.314 0 6 2.686 6 6v18c0 3.314-2.686 6-6 6z"/><path d="m666 607h-18c-3.314 0-6-2.686-6-6v-18c0-3.314 2.686-6 6-6h18c3.314 0 6 2.686 6 6v18c0 3.314-2.686 6-6 6z"/><path d="m54.0001 709h-18c-3.3137 0-6-2.686-6-6v-18c0-3.314 2.6863-6 6-6h18c3.3137 0 6 2.686 6 6v18c0 3.314-2.6863 6-6 6z"/><path d="m156 709h-18c-3.314 0-6-2.686-6-6v-18c0-3.314 2.686-6 6-6h18c3.314 0 6 2.686 6 6v18c0 3.314-2.686 6-6 6z"/><path d="m190 709h-18c-3.314 0-6-2.686-6-6v-18c0-3.314 2.686-6 6-6h18c3.314 0 6 2.686 6 6v18c0 3.314-2.686 6-6 6z"/><path d="m224 709h-18c-3.314 0-6-2.686-6-6v-18c0-3.314 2.686-6 6-6h18c3.314 0 6 2.686 6 6v18c0 3.314-2.686 6-6 6z"/><path d="m258 709h-18c-3.314 0-6-2.686-6-6v-18c0-3.314 2.686-6 6-6h18c3.314 0 6 2.686 6 6v18c0 3.314-2.686 6-6 6z" opacity=".6"/><path d="m292 709h-18c-3.314 0-6-2.686-6-6v-18c0-3.314 2.686-6 6-6h18c3.314 0 6 2.686 6 6v18c0 3.314-2.686 6-6 6z" opacity=".3"/><path d="m326 709h-18c-3.314 0-6-2.686-6-6v-18c0-3.314 2.686-6 6-6h18c3.314 0 6 2.686 6 6v18c0 3.314-2.686 6-6 6z" opacity=".3"/><path d="m360 709h-18c-3.314 0-6-2.686-6-6v-18c0-3.314 2.686-6 6-6h18c3.314 0 6 2.686 6 6v18c0 3.314-2.686 6-6 6z"/><path d="m428 709h-18c-3.314 0-6-2.686-6-6v-18c0-3.314 2.686-6 6-6h18c3.314 0 6 2.686 6 6v18c0 3.314-2.686 6-6 6z"/><path d="m462 709h-18c-3.314 0-6-2.686-6-6v-18c0-3.314 2.686-6 6-6h18c3.314 0 6 2.686 6 6v18c0 3.314-2.686 6-6 6z"/><path d="m496 709h-18c-3.314 0-6-2.686-6-6v-18c0-3.314 2.686-6 6-6h18c3.314 0 6 2.686 6 6v18c0 3.314-2.686 6-6 6z"/><path d="m530 709h-18c-3.314 0-6-2.686-6-6v-18c0-3.314 2.686-6 6-6h18c3.314 0 6 2.686 6 6v18c0 3.314-2.686 6-6 6z" opacity=".7"/><path d="m564 709h-18c-3.314 0-6-2.686-6-6v-18c0-3.314 2.686-6 6-6h18c3.314 0 6 2.686 6 6v18c0 3.314-2.686 6-6 6z"/><path d="m598 709h-18c-3.314 0-6-2.686-6-6v-18c0-3.314 2.686-6 6-6h18c3.314 0 6 2.686 6 6v18c0 3.314-2.686 6-6 6z" opacity=".8"/><path d="m632 709h-18c-3.314 0-6-2.686-6-6v-18c0-3.314 2.686-6 6-6h18c3.314 0 6 2.686 6 6v18c0 3.314-2.686 6-6 6z"/><path d="m700 709h-18c-3.314 0-6-2.686-6-6v-18c0-3.314 2.686-6 6-6h18c3.314 0 6 2.686 6 6v18c0 3.314-2.686 6-6 6z"/><path d="m54.0001 675h-18c-3.3137 0-6-2.686-6-6v-18c0-3.314 2.6863-6 6-6h18c3.3137 0 6 2.686 6 6v18c0 3.314-2.6863 6-6 6z"/><path d="m88.0001 675h-18c-3.3137 0-6-2.686-6-6v-18c0-3.314 2.6863-6 6-6h18c3.3137 0 6 2.686 6 6v18c0 3.314-2.6863 6-6 6z"/><path d="m122 675h-18c-3.314 0-5.9999-2.686-5.9999-6v-18c0-3.314 2.6859-6 5.9999-6h18c3.314 0 6 2.686 6 6v18c0 3.314-2.686 6-6 6z"/><path d="m190 675h-18c-3.314 0-6-2.686-6-6v-18c0-3.314 2.686-6 6-6h18c3.314 0 6 2.686 6 6v18c0 3.314-2.686 6-6 6z" opacity=".3"/><path d="m224 675h-18c-3.314 0-6-2.686-6-6v-18c0-3.314 2.686-6 6-6h18c3.314 0 6 2.686 6 6v18c0 3.314-2.686 6-6 6z"/><path d="m292 675h-18c-3.314 0-6-2.686-6-6v-18c0-3.314 2.686-6 6-6h18c3.314 0 6 2.686 6 6v18c0 3.314-2.686 6-6 6z"/><path d="m326 675h-18c-3.314 0-6-2.686-6-6v-18c0-3.314 2.686-6 6-6h18c3.314 0 6 2.686 6 6v18c0 3.314-2.686 6-6 6z"/><path d="m360 675h-18c-3.314 0-6-2.686-6-6v-18c0-3.314 2.686-6 6-6h18c3.314 0 6 2.686 6 6v18c0 3.314-2.686 6-6 6z"/><path d="m428 675h-18c-3.314 0-6-2.686-6-6v-18c0-3.314 2.686-6 6-6h18c3.314 0 6 2.686 6 6v18c0 3.314-2.686 6-6 6z" opacity=".5"/><path d="m462 675h-18c-3.314 0-6-2.686-6-6v-18c0-3.314 2.686-6 6-6h18c3.314 0 6 2.686 6 6v18c0 3.314-2.686 6-6 6z"/><path d="m530 675h-18c-3.314 0-6-2.686-6-6v-18c0-3.314 2.686-6 6-6h18c3.314 0 6 2.686 6 6v18c0 3.314-2.686 6-6 6z"/><path d="m598 675h-18c-3.314 0-6-2.686-6-6v-18c0-3.314 2.686-6 6-6h18c3.314 0 6 2.686 6 6v18c0 3.314-2.686 6-6 6z"/><path d="m666 675h-18c-3.314 0-6-2.686-6-6v-18c0-3.314 2.686-6 6-6h18c3.314 0 6 2.686 6 6v18c0 3.314-2.686 6-6 6z"/><path d="m20.0001 573h-18.00004c-3.31371 0-6-2.686-6-6v-18c0-3.314 2.68629-6 6-6h18.00004c3.3137 0 6 2.686 6 6v18c0 3.314-2.6863 6-6 6z" opacity=".3"/><path d="m54.0001 573h-18c-3.3137 0-6-2.686-6-6v-18c0-3.314 2.6863-6 6-6h18c3.3137 0 6 2.686 6 6v18c0 3.314-2.6863 6-6 6z" opacity=".3"/><path d="m122 573h-18c-3.314 0-5.9999-2.686-5.9999-6v-18c0-3.314 2.6859-6 5.9999-6h18c3.314 0 6 2.686 6 6v18c0 3.314-2.686 6-6 6z"/><path d="m190 573h-18c-3.314 0-6-2.686-6-6v-18c0-3.314 2.686-6 6-6h18c3.314 0 6 2.686 6 6v18c0 3.314-2.686 6-6 6z"/><path d="m224 573h-18c-3.314 0-6-2.686-6-6v-18c0-3.314 2.686-6 6-6h18c3.314 0 6 2.686 6 6v18c0 3.314-2.686 6-6 6z"/><path d="m258 573h-18c-3.314 0-6-2.686-6-6v-18c0-3.314 2.686-6 6-6h18c3.314 0 6 2.686 6 6v18c0 3.314-2.686 6-6 6z"/><path d="m326 573h-18c-3.314 0-6-2.686-6-6v-18c0-3.314 2.686-6 6-6h18c3.314 0 6 2.686 6 6v18c0 3.314-2.686 6-6 6z" opacity=".5"/><path d="m360 573h-18c-3.314 0-6-2.686-6-6v-18c0-3.314 2.686-6 6-6h18c3.314 0 6 2.686 6 6v18c0 3.314-2.686 6-6 6z"/><path d="m394 573h-18c-3.314 0-6-2.686-6-6v-18c0-3.314 2.686-6 6-6h18c3.314 0 6 2.686 6 6v18c0 3.314-2.686 6-6 6z"/><path d="m428 573h-18c-3.314 0-6-2.686-6-6v-18c0-3.314 2.686-6 6-6h18c3.314 0 6 2.686 6 6v18c0 3.314-2.686 6-6 6z" opacity=".5"/><path d="m496 573h-18c-3.314 0-6-2.686-6-6v-18c0-3.314 2.686-6 6-6h18c3.314 0 6 2.686 6 6v18c0 3.314-2.686 6-6 6z" opacity=".2"/><path d="m530 573h-18c-3.314 0-6-2.686-6-6v-18c0-3.314 2.686-6 6-6h18c3.314 0 6 2.686 6 6v18c0 3.314-2.686 6-6 6z"/><path d="m564 573h-18c-3.314 0-6-2.686-6-6v-18c0-3.314 2.686-6 6-6h18c3.314 0 6 2.686 6 6v18c0 3.314-2.686 6-6 6z"/><path d="m598 573h-18c-3.314 0-6-2.686-6-6v-18c0-3.314 2.686-6 6-6h18c3.314 0 6 2.686 6 6v18c0 3.314-2.686 6-6 6z" opacity=".2"/><path d="m632 573h-18c-3.314 0-6-2.686-6-6v-18c0-3.314 2.686-6 6-6h18c3.314 0 6 2.686 6 6v18c0 3.314-2.686 6-6 6z"/><path d="m700 573h-18c-3.314 0-6-2.686-6-6v-18c0-3.314 2.686-6 6-6h18c3.314 0 6 2.686 6 6v18c0 3.314-2.686 6-6 6z"/><path d="m20.0001 539h-18.00004c-3.31371 0-6-2.686-6-6v-18c0-3.314 2.68629-6 6-6h18.00004c3.3137 0 6 2.686 6 6v18c0 3.314-2.6863 6-6 6z" opacity=".5"/><path d="m54.0001 539h-18c-3.3137 0-6-2.686-6-6v-18c0-3.314 2.6863-6 6-6h18c3.3137 0 6 2.686 6 6v18c0 3.314-2.6863 6-6 6z"/><path d="m88.0001 539h-18c-3.3137 0-6-2.686-6-6v-18c0-3.314 2.6863-6 6-6h18c3.3137 0 6 2.686 6 6v18c0 3.314-2.6863 6-6 6z" opacity=".3"/><path d="m122 539h-18c-3.314 0-5.9999-2.686-5.9999-6v-18c0-3.314 2.6859-6 5.9999-6h18c3.314 0 6 2.686 6 6v18c0 3.314-2.686 6-6 6z"/><path d="m190 539h-18c-3.314 0-6-2.686-6-6v-18c0-3.314 2.686-6 6-6h18c3.314 0 6 2.686 6 6v18c0 3.314-2.686 6-6 6z" opacity=".5"/><path d="m258 539h-18c-3.314 0-6-2.686-6-6v-18c0-3.314 2.686-6 6-6h18c3.314 0 6 2.686 6 6v18c0 3.314-2.686 6-6 6z"/><path d="m292 539h-18c-3.314 0-6-2.686-6-6v-18c0-3.314 2.686-6 6-6h18c3.314 0 6 2.686 6 6v18c0 3.314-2.686 6-6 6z"/><path d="m326 539h-18c-3.314 0-6-2.686-6-6v-18c0-3.314 2.686-6 6-6h18c3.314 0 6 2.686 6 6v18c0 3.314-2.686 6-6 6z"/><path d="m394 539h-18c-3.314 0-6-2.686-6-6v-18c0-3.314 2.686-6 6-6h18c3.314 0 6 2.686 6 6v18c0 3.314-2.686 6-6 6z"/><path d="m428 539h-18c-3.314 0-6-2.686-6-6v-18c0-3.314 2.686-6 6-6h18c3.314 0 6 2.686 6 6v18c0 3.314-2.686 6-6 6z"/><path d="m462 539h-18c-3.314 0-6-2.686-6-6v-18c0-3.314 2.686-6 6-6h18c3.314 0 6 2.686 6 6v18c0 3.314-2.686 6-6 6z"/><path d="m496 539h-18c-3.314 0-6-2.686-6-6v-18c0-3.314 2.686-6 6-6h18c3.314 0 6 2.686 6 6v18c0 3.314-2.686 6-6 6z"/><path d="m530 539h-18c-3.314 0-6-2.686-6-6v-18c0-3.314 2.686-6 6-6h18c3.314 0 6 2.686 6 6v18c0 3.314-2.686 6-6 6z"/><path d="m632 539h-18c-3.314 0-6-2.686-6-6v-18c0-3.314 2.686-6 6-6h18c3.314 0 6 2.686 6 6v18c0 3.314-2.686 6-6 6z"/><path d="m666 539h-18c-3.314 0-6-2.686-6-6v-18c0-3.314 2.686-6 6-6h18c3.314 0 6 2.686 6 6v18c0 3.314-2.686 6-6 6z"/><path d="m700 539h-18c-3.314 0-6-2.686-6-6v-18c0-3.314 2.686-6 6-6h18c3.314 0 6 2.686 6 6v18c0 3.314-2.686 6-6 6z"/><path d="m20.0001 777h-18.00004c-3.31371 0-6-2.686-6-6v-18c0-3.314 2.68629-6 6-6h18.00004c3.3137 0 6 2.686 6 6v18c0 3.314-2.6863 6-6 6z"/><path d="m54.0001 777h-18c-3.3137 0-6-2.686-6-6v-18c0-3.314 2.6863-6 6-6h18c3.3137 0 6 2.686 6 6v18c0 3.314-2.6863 6-6 6z"/><path d="m88.0001 777h-18c-3.3137 0-6-2.686-6-6v-18c0-3.314 2.6863-6 6-6h18c3.3137 0 6 2.686 6 6v18c0 3.314-2.6863 6-6 6z"/><path d="m122 777h-18c-3.314 0-5.9999-2.686-5.9999-6v-18c0-3.314 2.6859-6 5.9999-6h18c3.314 0 6 2.686 6 6v18c0 3.314-2.686 6-6 6z"/><path d="m156 777h-18c-3.314 0-6-2.686-6-6v-18c0-3.314 2.686-6 6-6h18c3.314 0 6 2.686 6 6v18c0 3.314-2.686 6-6 6z"/><path d="m190 777h-18c-3.314 0-6-2.686-6-6v-18c0-3.314 2.686-6 6-6h18c3.314 0 6 2.686 6 6v18c0 3.314-2.686 6-6 6z"/><path d="m224 777h-18c-3.314 0-6-2.686-6-6v-18c0-3.314 2.686-6 6-6h18c3.314 0 6 2.686 6 6v18c0 3.314-2.686 6-6 6z" opacity=".3"/><path d="m258 777h-18c-3.314 0-6-2.686-6-6v-18c0-3.314 2.686-6 6-6h18c3.314 0 6 2.686 6 6v18c0 3.314-2.686 6-6 6z"/><path d="m292 777h-18c-3.314 0-6-2.686-6-6v-18c0-3.314 2.686-6 6-6h18c3.314 0 6 2.686 6 6v18c0 3.314-2.686 6-6 6z"/><path d="m326 777h-18c-3.314 0-6-2.686-6-6v-18c0-3.314 2.686-6 6-6h18c3.314 0 6 2.686 6 6v18c0 3.314-2.686 6-6 6z"/><path d="m360 777h-18c-3.314 0-6-2.686-6-6v-18c0-3.314 2.686-6 6-6h18c3.314 0 6 2.686 6 6v18c0 3.314-2.686 6-6 6z"/><path d="m394 777h-18c-3.314 0-6-2.686-6-6v-18c0-3.314 2.686-6 6-6h18c3.314 0 6 2.686 6 6v18c0 3.314-2.686 6-6 6z" opacity=".3"/><path d="m462 777h-18c-3.314 0-6-2.686-6-6v-18c0-3.314 2.686-6 6-6h18c3.314 0 6 2.686 6 6v18c0 3.314-2.686 6-6 6z" opacity=".3"/><path d="m496 777h-18c-3.314 0-6-2.686-6-6v-18c0-3.314 2.686-6 6-6h18c3.314 0 6 2.686 6 6v18c0 3.314-2.686 6-6 6z"/><path d="m530 777h-18c-3.314 0-6-2.686-6-6v-18c0-3.314 2.686-6 6-6h18c3.314 0 6 2.686 6 6v18c0 3.314-2.686 6-6 6z" opacity=".5"/><path d="m564 777h-18c-3.314 0-6-2.686-6-6v-18c0-3.314 2.686-6 6-6h18c3.314 0 6 2.686 6 6v18c0 3.314-2.686 6-6 6z"/><path d="m598 777h-18c-3.314 0-6-2.686-6-6v-18c0-3.314 2.686-6 6-6h18c3.314 0 6 2.686 6 6v18c0 3.314-2.686 6-6 6z"/><path d="m632 777h-18c-3.314 0-6-2.686-6-6v-18c0-3.314 2.686-6 6-6h18c3.314 0 6 2.686 6 6v18c0 3.314-2.686 6-6 6z" opacity=".3"/><path d="m666 777h-18c-3.314 0-6-2.686-6-6v-18c0-3.314 2.686-6 6-6h18c3.314 0 6 2.686 6 6v18c0 3.314-2.686 6-6 6z"/><path d="m700 777h-18c-3.314 0-6-2.686-6-6v-18c0-3.314 2.686-6 6-6h18c3.314 0 6 2.686 6 6v18c0 3.314-2.686 6-6 6z"/><path d="m20.0001 845h-18.00004c-3.31371 0-6-2.686-6-6v-18c0-3.314 2.68629-6 6-6h18.00004c3.3137 0 6 2.686 6 6v18c0 3.314-2.6863 6-6 6z" opacity=".5"/><path d="m88.0001 845h-18c-3.3137 0-6-2.686-6-6v-18c0-3.314 2.6863-6 6-6h18c3.3137 0 6 2.686 6 6v18c0 3.314-2.6863 6-6 6z"/><path d="m122 845h-18c-3.314 0-5.9999-2.686-5.9999-6v-18c0-3.314 2.6859-6 5.9999-6h18c3.314 0 6 2.686 6 6v18c0 3.314-2.686 6-6 6z"/><path d="m156 845h-18c-3.314 0-6-2.686-6-6v-18c0-3.314 2.686-6 6-6h18c3.314 0 6 2.686 6 6v18c0 3.314-2.686 6-6 6z"/><path d="m224 845h-18c-3.314 0-6-2.686-6-6v-18c0-3.314 2.686-6 6-6h18c3.314 0 6 2.686 6 6v18c0 3.314-2.686 6-6 6z"/><path d="m292 845h-18c-3.314 0-6-2.686-6-6v-18c0-3.314 2.686-6 6-6h18c3.314 0 6 2.686 6 6v18c0 3.314-2.686 6-6 6z"/><path d="m326 845h-18c-3.314 0-6-2.686-6-6v-18c0-3.314 2.686-6 6-6h18c3.314 0 6 2.686 6 6v18c0 3.314-2.686 6-6 6z"/><path d="m360 845h-18c-3.314 0-6-2.686-6-6v-18c0-3.314 2.686-6 6-6h18c3.314 0 6 2.686 6 6v18c0 3.314-2.686 6-6 6z"/><path d="m394 845h-18c-3.314 0-6-2.686-6-6v-18c0-3.314 2.686-6 6-6h18c3.314 0 6 2.686 6 6v18c0 3.314-2.686 6-6 6z"/><path d="m496 845h-18c-3.314 0-6-2.686-6-6v-18c0-3.314 2.686-6 6-6h18c3.314 0 6 2.686 6 6v18c0 3.314-2.686 6-6 6z"/><path d="m564 845h-18c-3.314 0-6-2.686-6-6v-18c0-3.314 2.686-6 6-6h18c3.314 0 6 2.686 6 6v18c0 3.314-2.686 6-6 6z" opacity=".3"/><path d="m598 845h-18c-3.314 0-6-2.686-6-6v-18c0-3.314 2.686-6 6-6h18c3.314 0 6 2.686 6 6v18c0 3.314-2.686 6-6 6z" opacity=".3"/><path d="m632 845h-18c-3.314 0-6-2.686-6-6v-18c0-3.314 2.686-6 6-6h18c3.314 0 6 2.686 6 6v18c0 3.314-2.686 6-6 6z"/><path d="m666 845h-18c-3.314 0-6-2.686-6-6v-18c0-3.314 2.686-6 6-6h18c3.314 0 6 2.686 6 6v18c0 3.314-2.686 6-6 6z"/><path d="m700 845h-18c-3.314 0-6-2.686-6-6v-18c0-3.314 2.686-6 6-6h18c3.314 0 6 2.686 6 6v18c0 3.314-2.686 6-6 6z"/><path d="m54.0001 879h-18c-3.3137 0-6-2.686-6-6v-18c0-3.314 2.6863-6 6-6h18c3.3137 0 6 2.686 6 6v18c0 3.314-2.6863 6-6 6z"/><path d="m88.0001 879h-18c-3.3137 0-6-2.686-6-6v-18c0-3.314 2.6863-6 6-6h18c3.3137 0 6 2.686 6 6v18c0 3.314-2.6863 6-6 6z"/><path d="m122 879h-18c-3.314 0-5.9999-2.686-5.9999-6v-18c0-3.314 2.6859-6 5.9999-6h18c3.314 0 6 2.686 6 6v18c0 3.314-2.686 6-6 6z"/><path d="m394 879h-18c-3.314 0-6-2.686-6-6v-18c0-3.314 2.686-6 6-6h18c3.314 0 6 2.686 6 6v18c0 3.314-2.686 6-6 6z"/><path d="m428 879h-18c-3.314 0-6-2.686-6-6v-18c0-3.314 2.686-6 6-6h18c3.314 0 6 2.686 6 6v18c0 3.314-2.686 6-6 6z"/><path d="m496 879h-18c-3.314 0-6-2.686-6-6v-18c0-3.314 2.686-6 6-6h18c3.314 0 6 2.686 6 6v18c0 3.314-2.686 6-6 6z"/><path d="m530 879h-18c-3.314 0-6-2.686-6-6v-18c0-3.314 2.686-6 6-6h18c3.314 0 6 2.686 6 6v18c0 3.314-2.686 6-6 6z"/><path d="m632 879h-18c-3.314 0-6-2.686-6-6v-18c0-3.314 2.686-6 6-6h18c3.314 0 6 2.686 6 6v18c0 3.314-2.686 6-6 6z" opacity=".3"/><path d="m700 879h-18c-3.314 0-6-2.686-6-6v-18c0-3.314 2.686-6 6-6h18c3.314 0 6 2.686 6 6v18c0 3.314-2.686 6-6 6z"/><path d="m734 505h-18c-3.314 0-6-2.686-6-6v-18c0-3.314 2.686-6 6-6h18c3.314 0 6 2.686 6 6v18c0 3.314-2.686 6-6 6z"/><path d="m734 811h-18c-3.314 0-6-2.686-6-6v-18c0-3.314 2.686-6 6-6h18c3.314 0 6 2.686 6 6v18c0 3.314-2.686 6-6 6z"/><path d="m734 709h-18c-3.314 0-6-2.686-6-6v-18c0-3.314 2.686-6 6-6h18c3.314 0 6 2.686 6 6v18c0 3.314-2.686 6-6 6z"/><path d="m734 471h-18c-3.314 0-6-2.686-6-6v-18c0-3.314 2.686-6 6-6h18c3.314 0 6 2.686 6 6v18c0 3.314-2.686 6-6 6z"/><path d="m734 607h-18c-3.314 0-6-2.686-6-6v-18c0-3.314 2.686-6 6-6h18c3.314 0 6 2.686 6 6v18c0 3.314-2.686 6-6 6z"/><path d="m734 641h-18c-3.314 0-6-2.686-6-6v-18c0-3.314 2.686-6 6-6h18c3.314 0 6 2.686 6 6v18c0 3.314-2.686 6-6 6z"/><path d="m734 675h-18c-3.314 0-6-2.686-6-6v-18c0-3.314 2.686-6 6-6h18c3.314 0 6 2.686 6 6v18c0 3.314-2.686 6-6 6z"/><path d="m734 573h-18c-3.314 0-6-2.686-6-6v-18c0-3.314 2.686-6 6-6h18c3.314 0 6 2.686 6 6v18c0 3.314-2.686 6-6 6z"/><path d="m734 539h-18c-3.314 0-6-2.686-6-6v-18c0-3.314 2.686-6 6-6h18c3.314 0 6 2.686 6 6v18c0 3.314-2.686 6-6 6z" opacity=".5"/><path d="m768 811h-18c-3.314 0-6-2.686-6-6v-18c0-3.314 2.686-6 6-6h18c3.314 0 6 2.686 6 6v18c0 3.314-2.686 6-6 6z"/><path d="m802 811h-18c-3.314 0-6-2.686-6-6v-18c0-3.314 2.686-6 6-6h18c3.314 0 6 2.686 6 6v18c0 3.314-2.686 6-6 6z"/><path d="m836 811h-18c-3.314 0-6-2.686-6-6v-18c0-3.314 2.686-6 6-6h18c3.314 0 6 2.686 6 6v18c0 3.314-2.686 6-6 6z"/><path d="m768 743h-18c-3.314 0-6-2.686-6-6v-18c0-3.314 2.686-6 6-6h18c3.314 0 6 2.686 6 6v18c0 3.314-2.686 6-6 6z"/><path d="m802 743h-18c-3.314 0-6-2.686-6-6v-18c0-3.314 2.686-6 6-6h18c3.314 0 6 2.686 6 6v18c0 3.314-2.686 6-6 6z"/><path d="m836 743h-18c-3.314 0-6-2.686-6-6v-18c0-3.314 2.686-6 6-6h18c3.314 0 6 2.686 6 6v18c0 3.314-2.686 6-6 6z"/><path d="m768 505h-18c-3.314 0-6-2.686-6-6v-18c0-3.314 2.686-6 6-6h18c3.314 0 6 2.686 6 6v18c0 3.314-2.686 6-6 6z"/><path d="m802 505h-18c-3.314 0-6-2.686-6-6v-18c0-3.314 2.686-6 6-6h18c3.314 0 6 2.686 6 6v18c0 3.314-2.686 6-6 6z" opacity=".3"/><path d="m836 505h-18c-3.314 0-6-2.686-6-6v-18c0-3.314 2.686-6 6-6h18c3.314 0 6 2.686 6 6v18c0 3.314-2.686 6-6 6z"/><path d="m836 471h-18c-3.314 0-6-2.686-6-6v-18c0-3.314 2.686-6 6-6h18c3.314 0 6 2.686 6 6v18c0 3.314-2.686 6-6 6z"/><path d="m768 641h-18c-3.314 0-6-2.686-6-6v-18c0-3.314 2.686-6 6-6h18c3.314 0 6 2.686 6 6v18c0 3.314-2.686 6-6 6z" opacity=".3"/><path d="m802 641h-18c-3.314 0-6-2.686-6-6v-18c0-3.314 2.686-6 6-6h18c3.314 0 6 2.686 6 6v18c0 3.314-2.686 6-6 6z"/><path d="m836 641h-18c-3.314 0-6-2.686-6-6v-18c0-3.314 2.686-6 6-6h18c3.314 0 6 2.686 6 6v18c0 3.314-2.686 6-6 6z"/><path d="m802 607h-18c-3.314 0-6-2.686-6-6v-18c0-3.314 2.686-6 6-6h18c3.314 0 6 2.686 6 6v18c0 3.314-2.686 6-6 6z"/><path d="m836 607h-18c-3.314 0-6-2.686-6-6v-18c0-3.314 2.686-6 6-6h18c3.314 0 6 2.686 6 6v18c0 3.314-2.686 6-6 6z" opacity=".5"/><path d="m802 709h-18c-3.314 0-6-2.686-6-6v-18c0-3.314 2.686-6 6-6h18c3.314 0 6 2.686 6 6v18c0 3.314-2.686 6-6 6z" opacity=".3"/><path d="m836 709h-18c-3.314 0-6-2.686-6-6v-18c0-3.314 2.686-6 6-6h18c3.314 0 6 2.686 6 6v18c0 3.314-2.686 6-6 6z"/><path d="m768 675h-18c-3.314 0-6-2.686-6-6v-18c0-3.314 2.686-6 6-6h18c3.314 0 6 2.686 6 6v18c0 3.314-2.686 6-6 6z"/><path d="m802 675h-18c-3.314 0-6-2.686-6-6v-18c0-3.314 2.686-6 6-6h18c3.314 0 6 2.686 6 6v18c0 3.314-2.686 6-6 6z"/><path d="m768 573h-18c-3.314 0-6-2.686-6-6v-18c0-3.314 2.686-6 6-6h18c3.314 0 6 2.686 6 6v18c0 3.314-2.686 6-6 6z"/><path d="m802 573h-18c-3.314 0-6-2.686-6-6v-18c0-3.314 2.686-6 6-6h18c3.314 0 6 2.686 6 6v18c0 3.314-2.686 6-6 6z"/><path d="m836 573h-18c-3.314 0-6-2.686-6-6v-18c0-3.314 2.686-6 6-6h18c3.314 0 6 2.686 6 6v18c0 3.314-2.686 6-6 6z"/><path d="m768 539h-18c-3.314 0-6-2.686-6-6v-18c0-3.314 2.686-6 6-6h18c3.314 0 6 2.686 6 6v18c0 3.314-2.686 6-6 6z" opacity=".3"/><path d="m836 539h-18c-3.314 0-6-2.686-6-6v-18c0-3.314 2.686-6 6-6h18c3.314 0 6 2.686 6 6v18c0 3.314-2.686 6-6 6z"/><path d="m802 777h-18c-3.314 0-6-2.686-6-6v-18c0-3.314 2.686-6 6-6h18c3.314 0 6 2.686 6 6v18c0 3.314-2.686 6-6 6z" opacity=".5"/><path d="m836 777h-18c-3.314 0-6-2.686-6-6v-18c0-3.314 2.686-6 6-6h18c3.314 0 6 2.686 6 6v18c0 3.314-2.686 6-6 6z"/><path d="m768 845h-18c-3.314 0-6-2.686-6-6v-18c0-3.314 2.686-6 6-6h18c3.314 0 6 2.686 6 6v18c0 3.314-2.686 6-6 6z"/><path d="m802 845h-18c-3.314 0-6-2.686-6-6v-18c0-3.314 2.686-6 6-6h18c3.314 0 6 2.686 6 6v18c0 3.314-2.686 6-6 6z"/><path d="m836 845h-18c-3.314 0-6-2.686-6-6v-18c0-3.314 2.686-6 6-6h18c3.314 0 6 2.686 6 6v18c0 3.314-2.686 6-6 6z"/><path d="m768 879h-18c-3.314 0-6-2.686-6-6v-18c0-3.314 2.686-6 6-6h18c3.314 0 6 2.686 6 6v18c0 3.314-2.686 6-6 6z"/><path d="m904 811h-18c-3.314 0-6-2.686-6-6v-18c0-3.314 2.686-6 6-6h18c3.314 0 6 2.686 6 6v18c0 3.314-2.686 6-6 6z"/><path d="m938 811h-18c-3.314 0-6-2.686-6-6v-18c0-3.314 2.686-6 6-6h18c3.314 0 6 2.686 6 6v18c0 3.314-2.686 6-6 6z"/><path d="m972 811h-18c-3.314 0-6-2.686-6-6v-18c0-3.314 2.686-6 6-6h18c3.314 0 6 2.686 6 6v18c0 3.314-2.686 6-6 6z"/><path d="m1006 811h-18c-3.314 0-6-2.686-6-6v-18c0-3.314 2.686-6 6-6h18c3.31 0 6 2.686 6 6v18c0 3.314-2.69 6-6 6z" opacity=".5"/><path d="m1040 811h-18c-3.31 0-6-2.686-6-6v-18c0-3.314 2.69-6 6-6h18c3.31 0 6 2.686 6 6v18c0 3.314-2.69 6-6 6z"/><path d="m1074 811h-18c-3.31 0-6-2.686-6-6v-18c0-3.314 2.69-6 6-6h18c3.31 0 6 2.686 6 6v18c0 3.314-2.69 6-6 6z"/><path d="m1108 811h-18c-3.31 0-6-2.686-6-6v-18c0-3.314 2.69-6 6-6h18c3.31 0 6 2.686 6 6v18c0 3.314-2.69 6-6 6z"/><path d="m1142 811h-18c-3.31 0-6-2.686-6-6v-18c0-3.314 2.69-6 6-6h18c3.31 0 6 2.686 6 6v18c0 3.314-2.69 6-6 6z"/><path d="m1176 811h-18c-3.31 0-6-2.686-6-6v-18c0-3.314 2.69-6 6-6h18c3.31 0 6 2.686 6 6v18c0 3.314-2.69 6-6 6z"/><path d="m1210 811h-18c-3.31 0-6-2.686-6-6v-18c0-3.314 2.69-6 6-6h18c3.31 0 6 2.686 6 6v18c0 3.314-2.69 6-6 6z"/><path d="m1244 811h-18c-3.31 0-6-2.686-6-6v-18c0-3.314 2.69-6 6-6h18c3.31 0 6 2.686 6 6v18c0 3.314-2.69 6-6 6z"/><path d="m1278 811h-18c-3.31 0-6-2.686-6-6v-18c0-3.314 2.69-6 6-6h18c3.31 0 6 2.686 6 6v18c0 3.314-2.69 6-6 6z"/><path d="m1312 811h-18c-3.31 0-6-2.686-6-6v-18c0-3.314 2.69-6 6-6h18c3.31 0 6 2.686 6 6v18c0 3.314-2.69 6-6 6z"/><path d="m1346 811h-18c-3.31 0-6-2.686-6-6v-18c0-3.314 2.69-6 6-6h18c3.31 0 6 2.686 6 6v18c0 3.314-2.69 6-6 6z"/><path d="m1380 811h-18c-3.31 0-6-2.686-6-6v-18c0-3.314 2.69-6 6-6h18c3.31 0 6 2.686 6 6v18c0 3.314-2.69 6-6 6z" opacity=".3"/><path d="m870 743h-18c-3.314 0-6-2.686-6-6v-18c0-3.314 2.686-6 6-6h18c3.314 0 6 2.686 6 6v18c0 3.314-2.686 6-6 6z"/><path d="m938 743h-18c-3.314 0-6-2.686-6-6v-18c0-3.314 2.686-6 6-6h18c3.314 0 6 2.686 6 6v18c0 3.314-2.686 6-6 6z" opacity=".27"/><path d="m972 743h-18c-3.314 0-6-2.686-6-6v-18c0-3.314 2.686-6 6-6h18c3.314 0 6 2.686 6 6v18c0 3.314-2.686 6-6 6z"/><path d="m1006 743h-18c-3.314 0-6-2.686-6-6v-18c0-3.314 2.686-6 6-6h18c3.31 0 6 2.686 6 6v18c0 3.314-2.69 6-6 6z" opacity=".9"/><path d="m1040 743h-18c-3.31 0-6-2.686-6-6v-18c0-3.314 2.69-6 6-6h18c3.31 0 6 2.686 6 6v18c0 3.314-2.69 6-6 6z" opacity=".6"/><path d="m1074 743h-18c-3.31 0-6-2.686-6-6v-18c0-3.314 2.69-6 6-6h18c3.31 0 6 2.686 6 6v18c0 3.314-2.69 6-6 6z"/><path d="m1142 743h-18c-3.31 0-6-2.686-6-6v-18c0-3.314 2.69-6 6-6h18c3.31 0 6 2.686 6 6v18c0 3.314-2.69 6-6 6z"/><path d="m1176 743h-18c-3.31 0-6-2.686-6-6v-18c0-3.314 2.69-6 6-6h18c3.31 0 6 2.686 6 6v18c0 3.314-2.69 6-6 6z"/><path d="m1210 743h-18c-3.31 0-6-2.686-6-6v-18c0-3.314 2.69-6 6-6h18c3.31 0 6 2.686 6 6v18c0 3.314-2.69 6-6 6z" opacity=".5"/><path d="m1244 743h-18c-3.31 0-6-2.686-6-6v-18c0-3.314 2.69-6 6-6h18c3.31 0 6 2.686 6 6v18c0 3.314-2.69 6-6 6z"/><path d="m1278 743h-18c-3.31 0-6-2.686-6-6v-18c0-3.314 2.69-6 6-6h18c3.31 0 6 2.686 6 6v18c0 3.314-2.69 6-6 6z"/><path d="m1312 743h-18c-3.31 0-6-2.686-6-6v-18c0-3.314 2.69-6 6-6h18c3.31 0 6 2.686 6 6v18c0 3.314-2.69 6-6 6z"/><path d="m1346 743h-18c-3.31 0-6-2.686-6-6v-18c0-3.314 2.69-6 6-6h18c3.31 0 6 2.686 6 6v18c0 3.314-2.69 6-6 6z"/><path d="m1380 743h-18c-3.31 0-6-2.686-6-6v-18c0-3.314 2.69-6 6-6h18c3.31 0 6 2.686 6 6v18c0 3.314-2.69 6-6 6z"/><path d="m904 505h-18c-3.314 0-6-2.686-6-6v-18c0-3.314 2.686-6 6-6h18c3.314 0 6 2.686 6 6v18c0 3.314-2.686 6-6 6z"/><path d="m938 505h-18c-3.314 0-6-2.686-6-6v-18c0-3.314 2.686-6 6-6h18c3.314 0 6 2.686 6 6v18c0 3.314-2.686 6-6 6z" opacity=".5"/><path d="m972 505h-18c-3.314 0-6-2.686-6-6v-18c0-3.314 2.686-6 6-6h18c3.314 0 6 2.686 6 6v18c0 3.314-2.686 6-6 6z"/><path d="m1006 505h-18c-3.314 0-6-2.686-6-6v-18c0-3.314 2.686-6 6-6h18c3.31 0 6 2.686 6 6v18c0 3.314-2.69 6-6 6z" opacity=".7"/><path d="m1040 505h-18c-3.31 0-6-2.686-6-6v-18c0-3.314 2.69-6 6-6h18c3.31 0 6 2.686 6 6v18c0 3.314-2.69 6-6 6z"/><path d="m1074 505h-18c-3.31 0-6-2.686-6-6v-18c0-3.314 2.69-6 6-6h18c3.31 0 6 2.686 6 6v18c0 3.314-2.69 6-6 6z" opacity=".4"/><path d="m1108 505h-18c-3.31 0-6-2.686-6-6v-18c0-3.314 2.69-6 6-6h18c3.31 0 6 2.686 6 6v18c0 3.314-2.69 6-6 6z" opacity=".5"/><path d="m1244 505h-18c-3.31 0-6-2.686-6-6v-18c0-3.314 2.69-6 6-6h18c3.31 0 6 2.686 6 6v18c0 3.314-2.69 6-6 6z"/><path d="m1278 505h-18c-3.31 0-6-2.686-6-6v-18c0-3.314 2.69-6 6-6h18c3.31 0 6 2.686 6 6v18c0 3.314-2.69 6-6 6z" opacity=".5"/><path d="m1312 505h-18c-3.31 0-6-2.686-6-6v-18c0-3.314 2.69-6 6-6h18c3.31 0 6 2.686 6 6v18c0 3.314-2.69 6-6 6z"/><path d="m1380 505h-18c-3.31 0-6-2.686-6-6v-18c0-3.314 2.69-6 6-6h18c3.31 0 6 2.686 6 6v18c0 3.314-2.69 6-6 6z"/><path d="m1414 505h-18c-3.31 0-6-2.686-6-6v-18c0-3.314 2.69-6 6-6h18c3.31 0 6 2.686 6 6v18c0 3.314-2.69 6-6 6z" opacity=".2"/><path d="m938 471h-18c-3.314 0-6-2.686-6-6v-18c0-3.314 2.686-6 6-6h18c3.314 0 6 2.686 6 6v18c0 3.314-2.686 6-6 6z" opacity=".5"/><path d="m1278 471h-18c-3.31 0-6-2.686-6-6v-18c0-3.314 2.69-6 6-6h18c3.31 0 6 2.686 6 6v18c0 3.314-2.69 6-6 6z"/><path d="m1346 471h-18c-3.31 0-6-2.686-6-6v-18c0-3.314 2.69-6 6-6h18c3.31 0 6 2.686 6 6v18c0 3.314-2.69 6-6 6z"/><path d="m1380 471h-18c-3.31 0-6-2.686-6-6v-18c0-3.314 2.69-6 6-6h18c3.31 0 6 2.686 6 6v18c0 3.314-2.69 6-6 6z"/><path d="m1414 471h-18c-3.31 0-6-2.686-6-6v-18c0-3.314 2.69-6 6-6h18c3.31 0 6 2.686 6 6v18c0 3.314-2.69 6-6 6z"/><path d="m870 641h-18c-3.314 0-6-2.686-6-6v-18c0-3.314 2.686-6 6-6h18c3.314 0 6 2.686 6 6v18c0 3.314-2.686 6-6 6z"/><path d="m904 641h-18c-3.314 0-6-2.686-6-6v-18c0-3.314 2.686-6 6-6h18c3.314 0 6 2.686 6 6v18c0 3.314-2.686 6-6 6z"/><path d="m972 641h-18c-3.314 0-6-2.686-6-6v-18c0-3.314 2.686-6 6-6h18c3.314 0 6 2.686 6 6v18c0 3.314-2.686 6-6 6z"/><path d="m1006 641h-18c-3.314 0-6-2.686-6-6v-18c0-3.314 2.686-6 6-6h18c3.31 0 6 2.686 6 6v18c0 3.314-2.69 6-6 6z" opacity=".2"/><path d="m1040 641h-18c-3.31 0-6-2.686-6-6v-18c0-3.314 2.69-6 6-6h18c3.31 0 6 2.686 6 6v18c0 3.314-2.69 6-6 6z"/><path d="m1074 641h-18c-3.31 0-6-2.686-6-6v-18c0-3.314 2.69-6 6-6h18c3.31 0 6 2.686 6 6v18c0 3.314-2.69 6-6 6z"/><path d="m1108 641h-18c-3.31 0-6-2.686-6-6v-18c0-3.314 2.69-6 6-6h18c3.31 0 6 2.686 6 6v18c0 3.314-2.69 6-6 6z"/><path d="m1142 641h-18c-3.31 0-6-2.686-6-6v-18c0-3.314 2.69-6 6-6h18c3.31 0 6 2.686 6 6v18c0 3.314-2.69 6-6 6z"/><path d="m1244 641h-18c-3.31 0-6-2.686-6-6v-18c0-3.314 2.69-6 6-6h18c3.31 0 6 2.686 6 6v18c0 3.314-2.69 6-6 6z"/><path d="m1278 641h-18c-3.31 0-6-2.686-6-6v-18c0-3.314 2.69-6 6-6h18c3.31 0 6 2.686 6 6v18c0 3.314-2.69 6-6 6z"/><path d="m1312 641h-18c-3.31 0-6-2.686-6-6v-18c0-3.314 2.69-6 6-6h18c3.31 0 6 2.686 6 6v18c0 3.314-2.69 6-6 6z"/><path d="m1346 641h-18c-3.31 0-6-2.686-6-6v-18c0-3.314 2.69-6 6-6h18c3.31 0 6 2.686 6 6v18c0 3.314-2.69 6-6 6z"/><path d="m1380 641h-18c-3.31 0-6-2.686-6-6v-18c0-3.314 2.69-6 6-6h18c3.31 0 6 2.686 6 6v18c0 3.314-2.69 6-6 6z"/><path d="m870 607h-18c-3.314 0-6-2.686-6-6v-18c0-3.314 2.686-6 6-6h18c3.314 0 6 2.686 6 6v18c0 3.314-2.686 6-6 6z"/><path d="m904 607h-18c-3.314 0-6-2.686-6-6v-18c0-3.314 2.686-6 6-6h18c3.314 0 6 2.686 6 6v18c0 3.314-2.686 6-6 6z"/><path d="m938 607h-18c-3.314 0-6-2.686-6-6v-18c0-3.314 2.686-6 6-6h18c3.314 0 6 2.686 6 6v18c0 3.314-2.686 6-6 6z"/><path d="m972 607h-18c-3.314 0-6-2.686-6-6v-18c0-3.314 2.686-6 6-6h18c3.314 0 6 2.686 6 6v18c0 3.314-2.686 6-6 6z"/><path d="m1006 607h-18c-3.314 0-6-2.686-6-6v-18c0-3.314 2.686-6 6-6h18c3.31 0 6 2.686 6 6v18c0 3.314-2.69 6-6 6z"/><path d="m1040 607h-18c-3.31 0-6-2.686-6-6v-18c0-3.314 2.69-6 6-6h18c3.31 0 6 2.686 6 6v18c0 3.314-2.69 6-6 6z"/><path d="m1074 607h-18c-3.31 0-6-2.686-6-6v-18c0-3.314 2.69-6 6-6h18c3.31 0 6 2.686 6 6v18c0 3.314-2.69 6-6 6z" opacity=".3"/><path d="m1108 607h-18c-3.31 0-6-2.686-6-6v-18c0-3.314 2.69-6 6-6h18c3.31 0 6 2.686 6 6v18c0 3.314-2.69 6-6 6z" opacity=".3"/><path d="m1142 607h-18c-3.31 0-6-2.686-6-6v-18c0-3.314 2.69-6 6-6h18c3.31 0 6 2.686 6 6v18c0 3.314-2.69 6-6 6z"/><path d="m1176 607h-18c-3.31 0-6-2.686-6-6v-18c0-3.314 2.69-6 6-6h18c3.31 0 6 2.686 6 6v18c0 3.314-2.69 6-6 6z"/><path d="m1210 607h-18c-3.31 0-6-2.686-6-6v-18c0-3.314 2.69-6 6-6h18c3.31 0 6 2.686 6 6v18c0 3.314-2.69 6-6 6z" opacity=".5"/><path d="m1244 607h-18c-3.31 0-6-2.686-6-6v-18c0-3.314 2.69-6 6-6h18c3.31 0 6 2.686 6 6v18c0 3.314-2.69 6-6 6z"/><path d="m1312 607h-18c-3.31 0-6-2.686-6-6v-18c0-3.314 2.69-6 6-6h18c3.31 0 6 2.686 6 6v18c0 3.314-2.69 6-6 6z"/><path d="m1380 607h-18c-3.31 0-6-2.686-6-6v-18c0-3.314 2.69-6 6-6h18c3.31 0 6 2.686 6 6v18c0 3.314-2.69 6-6 6z"/><path d="m1414 607h-18c-3.31 0-6-2.686-6-6v-18c0-3.314 2.69-6 6-6h18c3.31 0 6 2.686 6 6v18c0 3.314-2.69 6-6 6z"/><path d="m870 709h-18c-3.314 0-6-2.686-6-6v-18c0-3.314 2.686-6 6-6h18c3.314 0 6 2.686 6 6v18c0 3.314-2.686 6-6 6z"/><path d="m938 709h-18c-3.314 0-6-2.686-6-6v-18c0-3.314 2.686-6 6-6h18c3.314 0 6 2.686 6 6v18c0 3.314-2.686 6-6 6z"/><path d="m1040 709h-18c-3.31 0-6-2.686-6-6v-18c0-3.314 2.69-6 6-6h18c3.31 0 6 2.686 6 6v18c0 3.314-2.69 6-6 6z"/><path d="m1074 709h-18c-3.31 0-6-2.686-6-6v-18c0-3.314 2.69-6 6-6h18c3.31 0 6 2.686 6 6v18c0 3.314-2.69 6-6 6z"/><path d="m1108 709h-18c-3.31 0-6-2.686-6-6v-18c0-3.314 2.69-6 6-6h18c3.31 0 6 2.686 6 6v18c0 3.314-2.69 6-6 6z"/><path d="m1142 709h-18c-3.31 0-6-2.686-6-6v-18c0-3.314 2.69-6 6-6h18c3.31 0 6 2.686 6 6v18c0 3.314-2.69 6-6 6z" opacity=".6"/><path d="m1176 709h-18c-3.31 0-6-2.686-6-6v-18c0-3.314 2.69-6 6-6h18c3.31 0 6 2.686 6 6v18c0 3.314-2.69 6-6 6z" opacity=".3"/><path d="m1210 709h-18c-3.31 0-6-2.686-6-6v-18c0-3.314 2.69-6 6-6h18c3.31 0 6 2.686 6 6v18c0 3.314-2.69 6-6 6z" opacity=".3"/><path d="m1244 709h-18c-3.31 0-6-2.686-6-6v-18c0-3.314 2.69-6 6-6h18c3.31 0 6 2.686 6 6v18c0 3.314-2.69 6-6 6z"/><path d="m1312 709h-18c-3.31 0-6-2.686-6-6v-18c0-3.314 2.69-6 6-6h18c3.31 0 6 2.686 6 6v18c0 3.314-2.69 6-6 6z"/><path d="m1346 709h-18c-3.31 0-6-2.686-6-6v-18c0-3.314 2.69-6 6-6h18c3.31 0 6 2.686 6 6v18c0 3.314-2.69 6-6 6z"/><path d="m1380 709h-18c-3.31 0-6-2.686-6-6v-18c0-3.314 2.69-6 6-6h18c3.31 0 6 2.686 6 6v18c0 3.314-2.69 6-6 6z"/><path d="m1414 709h-18c-3.31 0-6-2.686-6-6v-18c0-3.314 2.69-6 6-6h18c3.31 0 6 2.686 6 6v18c0 3.314-2.69 6-6 6z" opacity=".7"/><path d="m870 675h-18c-3.314 0-6-2.686-6-6v-18c0-3.314 2.686-6 6-6h18c3.314 0 6 2.686 6 6v18c0 3.314-2.686 6-6 6z"/><path d="m938 675h-18c-3.314 0-6-2.686-6-6v-18c0-3.314 2.686-6 6-6h18c3.314 0 6 2.686 6 6v18c0 3.314-2.686 6-6 6z"/><path d="m972 675h-18c-3.314 0-6-2.686-6-6v-18c0-3.314 2.686-6 6-6h18c3.314 0 6 2.686 6 6v18c0 3.314-2.686 6-6 6z"/><path d="m1006 675h-18c-3.314 0-6-2.686-6-6v-18c0-3.314 2.686-6 6-6h18c3.31 0 6 2.686 6 6v18c0 3.314-2.69 6-6 6z"/><path d="m1074 675h-18c-3.31 0-6-2.686-6-6v-18c0-3.314 2.69-6 6-6h18c3.31 0 6 2.686 6 6v18c0 3.314-2.69 6-6 6z" opacity=".3"/><path d="m1108 675h-18c-3.31 0-6-2.686-6-6v-18c0-3.314 2.69-6 6-6h18c3.31 0 6 2.686 6 6v18c0 3.314-2.69 6-6 6z"/><path d="m1176 675h-18c-3.31 0-6-2.686-6-6v-18c0-3.314 2.69-6 6-6h18c3.31 0 6 2.686 6 6v18c0 3.314-2.69 6-6 6z"/><path d="m1210 675h-18c-3.31 0-6-2.686-6-6v-18c0-3.314 2.69-6 6-6h18c3.31 0 6 2.686 6 6v18c0 3.314-2.69 6-6 6z"/><path d="m1244 675h-18c-3.31 0-6-2.686-6-6v-18c0-3.314 2.69-6 6-6h18c3.31 0 6 2.686 6 6v18c0 3.314-2.69 6-6 6z"/><path d="m1312 675h-18c-3.31 0-6-2.686-6-6v-18c0-3.314 2.69-6 6-6h18c3.31 0 6 2.686 6 6v18c0 3.314-2.69 6-6 6z" opacity=".5"/><path d="m1346 675h-18c-3.31 0-6-2.686-6-6v-18c0-3.314 2.69-6 6-6h18c3.31 0 6 2.686 6 6v18c0 3.314-2.69 6-6 6z"/><path d="m1414 675h-18c-3.31 0-6-2.686-6-6v-18c0-3.314 2.69-6 6-6h18c3.31 0 6 2.686 6 6v18c0 3.314-2.69 6-6 6z"/><path d="m904 573h-18c-3.314 0-6-2.686-6-6v-18c0-3.314 2.686-6 6-6h18c3.314 0 6 2.686 6 6v18c0 3.314-2.686 6-6 6z" opacity=".3"/><path d="m938 573h-18c-3.314 0-6-2.686-6-6v-18c0-3.314 2.686-6 6-6h18c3.314 0 6 2.686 6 6v18c0 3.314-2.686 6-6 6z" opacity=".3"/><path d="m1006 573h-18c-3.314 0-6-2.686-6-6v-18c0-3.314 2.686-6 6-6h18c3.31 0 6 2.686 6 6v18c0 3.314-2.69 6-6 6z"/><path d="m1074 573h-18c-3.31 0-6-2.686-6-6v-18c0-3.314 2.69-6 6-6h18c3.31 0 6 2.686 6 6v18c0 3.314-2.69 6-6 6z"/><path d="m1108 573h-18c-3.31 0-6-2.686-6-6v-18c0-3.314 2.69-6 6-6h18c3.31 0 6 2.686 6 6v18c0 3.314-2.69 6-6 6z"/><path d="m1142 573h-18c-3.31 0-6-2.686-6-6v-18c0-3.314 2.69-6 6-6h18c3.31 0 6 2.686 6 6v18c0 3.314-2.69 6-6 6z"/><path d="m1210 573h-18c-3.31 0-6-2.686-6-6v-18c0-3.314 2.69-6 6-6h18c3.31 0 6 2.686 6 6v18c0 3.314-2.69 6-6 6z" opacity=".5"/><path d="m1244 573h-18c-3.31 0-6-2.686-6-6v-18c0-3.314 2.69-6 6-6h18c3.31 0 6 2.686 6 6v18c0 3.314-2.69 6-6 6z"/><path d="m1278 573h-18c-3.31 0-6-2.686-6-6v-18c0-3.314 2.69-6 6-6h18c3.31 0 6 2.686 6 6v18c0 3.314-2.69 6-6 6z"/><path d="m1312 573h-18c-3.31 0-6-2.686-6-6v-18c0-3.314 2.69-6 6-6h18c3.31 0 6 2.686 6 6v18c0 3.314-2.69 6-6 6z" opacity=".5"/><path d="m1380 573h-18c-3.31 0-6-2.686-6-6v-18c0-3.314 2.69-6 6-6h18c3.31 0 6 2.686 6 6v18c0 3.314-2.69 6-6 6z" opacity=".2"/><path d="m1414 573h-18c-3.31 0-6-2.686-6-6v-18c0-3.314 2.69-6 6-6h18c3.31 0 6 2.686 6 6v18c0 3.314-2.69 6-6 6z"/><path d="m870 539h-18c-3.314 0-6-2.686-6-6v-18c0-3.314 2.686-6 6-6h18c3.314 0 6 2.686 6 6v18c0 3.314-2.686 6-6 6z"/><path d="m904 539h-18c-3.314 0-6-2.686-6-6v-18c0-3.314 2.686-6 6-6h18c3.314 0 6 2.686 6 6v18c0 3.314-2.686 6-6 6z" opacity=".5"/><path d="m938 539h-18c-3.314 0-6-2.686-6-6v-18c0-3.314 2.686-6 6-6h18c3.314 0 6 2.686 6 6v18c0 3.314-2.686 6-6 6z"/><path d="m972 539h-18c-3.314 0-6-2.686-6-6v-18c0-3.314 2.686-6 6-6h18c3.314 0 6 2.686 6 6v18c0 3.314-2.686 6-6 6z" opacity=".3"/><path d="m1006 539h-18c-3.314 0-6-2.686-6-6v-18c0-3.314 2.686-6 6-6h18c3.31 0 6 2.686 6 6v18c0 3.314-2.69 6-6 6z"/><path d="m1074 539h-18c-3.31 0-6-2.686-6-6v-18c0-3.314 2.69-6 6-6h18c3.31 0 6 2.686 6 6v18c0 3.314-2.69 6-6 6z" opacity=".5"/><path d="m1142 539h-18c-3.31 0-6-2.686-6-6v-18c0-3.314 2.69-6 6-6h18c3.31 0 6 2.686 6 6v18c0 3.314-2.69 6-6 6z"/><path d="m1176 539h-18c-3.31 0-6-2.686-6-6v-18c0-3.314 2.69-6 6-6h18c3.31 0 6 2.686 6 6v18c0 3.314-2.69 6-6 6z"/><path d="m1210 539h-18c-3.31 0-6-2.686-6-6v-18c0-3.314 2.69-6 6-6h18c3.31 0 6 2.686 6 6v18c0 3.314-2.69 6-6 6z"/><path d="m1278 539h-18c-3.31 0-6-2.686-6-6v-18c0-3.314 2.69-6 6-6h18c3.31 0 6 2.686 6 6v18c0 3.314-2.69 6-6 6z"/><path d="m1312 539h-18c-3.31 0-6-2.686-6-6v-18c0-3.314 2.69-6 6-6h18c3.31 0 6 2.686 6 6v18c0 3.314-2.69 6-6 6z"/><path d="m1346 539h-18c-3.31 0-6-2.686-6-6v-18c0-3.314 2.69-6 6-6h18c3.31 0 6 2.686 6 6v18c0 3.314-2.69 6-6 6z"/><path d="m1380 539h-18c-3.31 0-6-2.686-6-6v-18c0-3.314 2.69-6 6-6h18c3.31 0 6 2.686 6 6v18c0 3.314-2.69 6-6 6z"/><path d="m1414 539h-18c-3.31 0-6-2.686-6-6v-18c0-3.314 2.69-6 6-6h18c3.31 0 6 2.686 6 6v18c0 3.314-2.69 6-6 6z"/><path d="m870 777h-18c-3.314 0-6-2.686-6-6v-18c0-3.314 2.686-6 6-6h18c3.314 0 6 2.686 6 6v18c0 3.314-2.686 6-6 6z" opacity=".4"/><path d="m904 777h-18c-3.314 0-6-2.686-6-6v-18c0-3.314 2.686-6 6-6h18c3.314 0 6 2.686 6 6v18c0 3.314-2.686 6-6 6z"/><path d="m938 777h-18c-3.314 0-6-2.686-6-6v-18c0-3.314 2.686-6 6-6h18c3.314 0 6 2.686 6 6v18c0 3.314-2.686 6-6 6z"/><path d="m972 777h-18c-3.314 0-6-2.686-6-6v-18c0-3.314 2.686-6 6-6h18c3.314 0 6 2.686 6 6v18c0 3.314-2.686 6-6 6z"/><path d="m1006 777h-18c-3.314 0-6-2.686-6-6v-18c0-3.314 2.686-6 6-6h18c3.31 0 6 2.686 6 6v18c0 3.314-2.69 6-6 6z"/><path d="m1040 777h-18c-3.31 0-6-2.686-6-6v-18c0-3.314 2.69-6 6-6h18c3.31 0 6 2.686 6 6v18c0 3.314-2.69 6-6 6z"/><path d="m1074 777h-18c-3.31 0-6-2.686-6-6v-18c0-3.314 2.69-6 6-6h18c3.31 0 6 2.686 6 6v18c0 3.314-2.69 6-6 6z"/><path d="m1108 777h-18c-3.31 0-6-2.686-6-6v-18c0-3.314 2.69-6 6-6h18c3.31 0 6 2.686 6 6v18c0 3.314-2.69 6-6 6z" opacity=".3"/><path d="m1142 777h-18c-3.31 0-6-2.686-6-6v-18c0-3.314 2.69-6 6-6h18c3.31 0 6 2.686 6 6v18c0 3.314-2.69 6-6 6z"/><path d="m1176 777h-18c-3.31 0-6-2.686-6-6v-18c0-3.314 2.69-6 6-6h18c3.31 0 6 2.686 6 6v18c0 3.314-2.69 6-6 6z"/><path d="m1210 777h-18c-3.31 0-6-2.686-6-6v-18c0-3.314 2.69-6 6-6h18c3.31 0 6 2.686 6 6v18c0 3.314-2.69 6-6 6z"/><path d="m1244 777h-18c-3.31 0-6-2.686-6-6v-18c0-3.314 2.69-6 6-6h18c3.31 0 6 2.686 6 6v18c0 3.314-2.69 6-6 6z"/><path d="m1278 777h-18c-3.31 0-6-2.686-6-6v-18c0-3.314 2.69-6 6-6h18c3.31 0 6 2.686 6 6v18c0 3.314-2.69 6-6 6z" opacity=".3"/><path d="m1346 777h-18c-3.31 0-6-2.686-6-6v-18c0-3.314 2.69-6 6-6h18c3.31 0 6 2.686 6 6v18c0 3.314-2.69 6-6 6z" opacity=".3"/><path d="m1380 777h-18c-3.31 0-6-2.686-6-6v-18c0-3.314 2.69-6 6-6h18c3.31 0 6 2.686 6 6v18c0 3.314-2.69 6-6 6z"/><path d="m1414 777h-18c-3.31 0-6-2.686-6-6v-18c0-3.314 2.69-6 6-6h18c3.31 0 6 2.686 6 6v18c0 3.314-2.69 6-6 6z" opacity=".5"/><path d="m870 845h-18c-3.314 0-6-2.686-6-6v-18c0-3.314 2.686-6 6-6h18c3.314 0 6 2.686 6 6v18c0 3.314-2.686 6-6 6z"/><path d="m904 845h-18c-3.314 0-6-2.686-6-6v-18c0-3.314 2.686-6 6-6h18c3.314 0 6 2.686 6 6v18c0 3.314-2.686 6-6 6z" opacity=".5"/><path d="m972 845h-18c-3.314 0-6-2.686-6-6v-18c0-3.314 2.686-6 6-6h18c3.314 0 6 2.686 6 6v18c0 3.314-2.686 6-6 6z"/><path d="m1006 845h-18c-3.314 0-6-2.686-6-6v-18c0-3.314 2.686-6 6-6h18c3.31 0 6 2.686 6 6v18c0 3.314-2.69 6-6 6z"/><path d="m1040 845h-18c-3.31 0-6-2.686-6-6v-18c0-3.314 2.69-6 6-6h18c3.31 0 6 2.686 6 6v18c0 3.314-2.69 6-6 6z"/><path d="m1108 845h-18c-3.31 0-6-2.686-6-6v-18c0-3.314 2.69-6 6-6h18c3.31 0 6 2.686 6 6v18c0 3.314-2.69 6-6 6z"/><path d="m1176 845h-18c-3.31 0-6-2.686-6-6v-18c0-3.314 2.69-6 6-6h18c3.31 0 6 2.686 6 6v18c0 3.314-2.69 6-6 6z"/><path d="m1210 845h-18c-3.31 0-6-2.686-6-6v-18c0-3.314 2.69-6 6-6h18c3.31 0 6 2.686 6 6v18c0 3.314-2.69 6-6 6z"/><path d="m1244 845h-18c-3.31 0-6-2.686-6-6v-18c0-3.314 2.69-6 6-6h18c3.31 0 6 2.686 6 6v18c0 3.314-2.69 6-6 6z"/><path d="m1278 845h-18c-3.31 0-6-2.686-6-6v-18c0-3.314 2.69-6 6-6h18c3.31 0 6 2.686 6 6v18c0 3.314-2.69 6-6 6z"/><path d="m1380 845h-18c-3.31 0-6-2.686-6-6v-18c0-3.314 2.69-6 6-6h18c3.31 0 6 2.686 6 6v18c0 3.314-2.69 6-6 6z"/><path d="m870 879h-18c-3.314 0-6-2.686-6-6v-18c0-3.314 2.686-6 6-6h18c3.314 0 6 2.686 6 6v18c0 3.314-2.686 6-6 6z"/><path d="m938 879h-18c-3.314 0-6-2.686-6-6v-18c0-3.314 2.686-6 6-6h18c3.314 0 6 2.686 6 6v18c0 3.314-2.686 6-6 6z"/><path d="m972 879h-18c-3.314 0-6-2.686-6-6v-18c0-3.314 2.686-6 6-6h18c3.314 0 6 2.686 6 6v18c0 3.314-2.686 6-6 6z"/><path d="m1006 879h-18c-3.314 0-6-2.686-6-6v-18c0-3.314 2.686-6 6-6h18c3.31 0 6 2.686 6 6v18c0 3.314-2.69 6-6 6z"/><path d="m1278 879h-18c-3.31 0-6-2.686-6-6v-18c0-3.314 2.69-6 6-6h18c3.31 0 6 2.686 6 6v18c0 3.314-2.69 6-6 6z"/><path d="m1312 879h-18c-3.31 0-6-2.686-6-6v-18c0-3.314 2.69-6 6-6h18c3.31 0 6 2.686 6 6v18c0 3.314-2.69 6-6 6z"/><path d="m1380 879h-18c-3.31 0-6-2.686-6-6v-18c0-3.314 2.69-6 6-6h18c3.31 0 6 2.686 6 6v18c0 3.314-2.69 6-6 6z"/><path d="m1414 879h-18c-3.31 0-6-2.686-6-6v-18c0-3.314 2.69-6 6-6h18c3.31 0 6 2.686 6 6v18c0 3.314-2.69 6-6 6z"/><path d="m734 777h-18c-3.314 0-6-2.686-6-6v-18c0-3.314 2.686-6 6-6h18c3.314 0 6 2.686 6 6v18c0 3.314-2.686 6-6 6z"/><path d="m734 845h-18c-3.314 0-6-2.686-6-6v-18c0-3.314 2.686-6 6-6h18c3.314 0 6 2.686 6 6v18c0 3.314-2.686 6-6 6z"/></g></svg>